<svg width="24" height="24" viewBox="0 0 24 24" fill="none" xmlns="http://www.w3.org/2000/svg">
<path d="M24 12C24 18.6274 18.6274 24 12 24C5.37258 24 0 18.6274 0 12C0 5.37258 5.37258 0 12 0C18.6274 0 24 5.37258 24 12Z" fill="#E000A1"/>
<path d="M11.2 14.7L10.3529 16.8824M4 15.4706C5.2984 14.1417 8.38013 12.8852 8.5 13C8.61987 13.1148 10.3529 9.82353 10.3529 9.82353H11.7647L8.94118 9.11765L11.7647 8.41176C12.5333 7.70047 13.4057 7.41761 15.2941 7V7.70588H16C14.9534 9.27706 14.4415 10.1862 13.8824 11.9412C13.6085 13.8711 13.6439 14.9525 13.8824 16.8824" stroke="white" stroke-width="0.6"/>
<path d="M16.7206 17.9094C16.8711 18.0978 17.1468 18.1293 17.3267 17.9688C18.314 17.0877 19.0691 15.9738 19.5214 14.7254C20.0235 13.34 20.1331 11.8428 19.8382 10.399C19.5433 8.95526 18.8553 7.62098 17.8502 6.54338C16.8451 5.46577 15.5619 4.68671 14.1421 4.29213C12.7224 3.89755 11.2212 3.90278 9.80419 4.30725C8.38719 4.71172 7.10944 5.4997 6.11187 6.58429C5.1143 7.66887 4.43568 9.00792 4.15086 10.4537C3.89422 11.7565 3.96629 13.1003 4.35739 14.3644C4.42866 14.5948 4.68106 14.7099 4.90718 14.6262V14.6262C5.13331 14.5425 5.24737 14.2916 5.17764 14.0608C4.84149 12.9479 4.78204 11.7674 5.00759 10.6225C5.26132 9.3345 5.86588 8.14161 6.75456 7.17541C7.64324 6.20921 8.78153 5.50723 10.0439 5.14691C11.3062 4.78659 12.6435 4.78193 13.9083 5.13344C15.1731 5.48495 16.3163 6.17898 17.2117 7.13896C18.1071 8.09895 18.7199 9.2876 18.9826 10.5738C19.2453 11.86 19.1477 13.1937 18.7005 14.428C18.3029 15.5251 17.6429 16.5056 16.7807 17.2855C16.6019 17.4472 16.5701 17.721 16.7206 17.9094V17.9094Z" fill="white"/>
<path d="M13 8.5H13.5" stroke="white" stroke-width="0.5"/>
</svg>
