<svg width="70" height="48" viewBox="0 0 70 48" fill="none" xmlns="http://www.w3.org/2000/svg">
<path d="M47 12C47 18.6274 41.6274 24 35 24C28.3726 24 23 18.6274 23 12C23 5.37258 28.3726 0 35 0C41.6274 0 47 5.37258 47 12Z" fill="#E000A1"/>
<path d="M0.880682 45V37.7273H1.76136V44.2188H5.14205V45H0.880682ZM8.67898 45.1136C8.15341 45.1136 7.70005 44.9976 7.31889 44.7656C6.9401 44.5312 6.64773 44.2045 6.44176 43.7855C6.23816 43.3641 6.13636 42.8741 6.13636 42.3153C6.13636 41.7566 6.23816 41.2642 6.44176 40.8381C6.64773 40.4096 6.93419 40.0758 7.30114 39.8366C7.67045 39.5952 8.10133 39.4744 8.59375 39.4744C8.87784 39.4744 9.15838 39.5218 9.43537 39.6165C9.71236 39.7112 9.96449 39.8651 10.1918 40.0781C10.419 40.2888 10.6001 40.5682 10.7351 40.9162C10.87 41.2642 10.9375 41.6927 10.9375 42.2017V42.5568H6.73295V41.8324H10.0852C10.0852 41.5246 10.0237 41.25 9.90057 41.0085C9.77983 40.767 9.60701 40.5765 9.3821 40.4368C9.15956 40.2971 8.89678 40.2273 8.59375 40.2273C8.25994 40.2273 7.97112 40.3101 7.72727 40.4759C7.4858 40.6392 7.29995 40.8523 7.16974 41.1151C7.03954 41.3778 6.97443 41.6596 6.97443 41.9602V42.4432C6.97443 42.8551 7.04545 43.2043 7.1875 43.4908C7.33191 43.7749 7.53196 43.9915 7.78764 44.1406C8.04332 44.2874 8.34044 44.3608 8.67898 44.3608C8.89915 44.3608 9.09801 44.33 9.27557 44.2685C9.45549 44.2045 9.61056 44.1098 9.74077 43.9844C9.87098 43.8565 9.97159 43.6979 10.0426 43.5085L10.8523 43.7358C10.767 44.0104 10.6238 44.2519 10.4226 44.4602C10.2214 44.6662 9.97277 44.8272 9.67685 44.9432C9.38092 45.0568 9.0483 45.1136 8.67898 45.1136ZM13.8175 45.1278C13.4718 45.1278 13.1581 45.0627 12.8764 44.9325C12.5947 44.8 12.371 44.6094 12.2053 44.3608C12.0395 44.1098 11.9567 43.8068 11.9567 43.4517C11.9567 43.1392 12.0182 42.8859 12.1413 42.6918C12.2644 42.4953 12.429 42.3414 12.6349 42.2301C12.8409 42.1188 13.0682 42.036 13.3168 41.9815C13.5677 41.9247 13.8198 41.8797 14.0732 41.8466C14.4046 41.804 14.6733 41.772 14.8793 41.7507C15.0876 41.727 15.2391 41.688 15.3338 41.6335C15.4309 41.5791 15.4794 41.4844 15.4794 41.3494V41.321C15.4794 40.9706 15.3835 40.6984 15.1918 40.5043C15.0024 40.3101 14.7147 40.2131 14.3288 40.2131C13.9287 40.2131 13.6151 40.3007 13.3878 40.4759C13.1605 40.651 13.0007 40.8381 12.9084 41.0369L12.1129 40.7528C12.255 40.4214 12.4444 40.1634 12.6811 39.9787C12.9202 39.7917 13.1806 39.6615 13.4624 39.5881C13.7464 39.5123 14.0258 39.4744 14.3004 39.4744C14.4756 39.4744 14.6768 39.4957 14.9041 39.5384C15.1338 39.5786 15.3551 39.6626 15.5682 39.7905C15.7836 39.9183 15.9624 40.1113 16.1044 40.3693C16.2464 40.6274 16.3175 40.973 16.3175 41.4062V45H15.4794V44.2614H15.4368C15.38 44.3797 15.2853 44.5064 15.1527 44.6413C15.0201 44.7763 14.8438 44.8911 14.6236 44.9858C14.4034 45.0805 14.1347 45.1278 13.8175 45.1278ZM13.9453 44.375C14.2768 44.375 14.5561 44.3099 14.7834 44.1797C15.013 44.0495 15.1858 43.8814 15.3018 43.6754C15.4202 43.4695 15.4794 43.2528 15.4794 43.0256V42.2585C15.4439 42.3011 15.3658 42.3402 15.245 42.3757C15.1267 42.4089 14.9893 42.4384 14.8331 42.4645C14.6792 42.4882 14.5289 42.5095 14.3821 42.5284C14.2377 42.545 14.1205 42.5592 14.0305 42.571C13.8127 42.5994 13.6091 42.6456 13.4197 42.7095C13.2327 42.7711 13.0812 42.8646 12.9652 42.9901C12.8516 43.1132 12.7947 43.2812 12.7947 43.4943C12.7947 43.7855 12.9025 44.0057 13.1179 44.1548C13.3357 44.3016 13.6115 44.375 13.9453 44.375ZM19.9068 45.1136C19.4522 45.1136 19.051 44.9988 18.7029 44.7692C18.3549 44.5372 18.0827 44.2105 17.8862 43.7891C17.6897 43.3653 17.5914 42.8646 17.5914 42.2869C17.5914 41.714 17.6897 41.2169 17.8862 40.7955C18.0827 40.3741 18.3561 40.0485 18.7065 39.8189C19.0569 39.5893 19.4617 39.4744 19.921 39.4744C20.2761 39.4744 20.5566 39.5336 20.7626 39.652C20.9709 39.768 21.1296 39.9006 21.2385 40.0497C21.3497 40.1965 21.4361 40.3172 21.4977 40.4119H21.5687V37.7273H22.4068V45H21.5971V44.1619H21.4977C21.4361 44.2614 21.3485 44.3868 21.2349 44.5384C21.1213 44.6875 20.9591 44.8213 20.7484 44.9396C20.5377 45.0556 20.2572 45.1136 19.9068 45.1136ZM20.0204 44.3608C20.3566 44.3608 20.6407 44.2732 20.8727 44.098C21.1047 43.9205 21.2811 43.6754 21.4018 43.3629C21.5225 43.0481 21.5829 42.6847 21.5829 42.2727C21.5829 41.8655 21.5237 41.5092 21.4054 41.2038C21.287 40.8961 21.1118 40.657 20.8798 40.4865C20.6478 40.3137 20.3613 40.2273 20.0204 40.2273C19.6653 40.2273 19.3694 40.3184 19.1326 40.5007C18.8983 40.6806 18.7219 40.9257 18.6035 41.2358C18.4875 41.5436 18.4295 41.8892 18.4295 42.2727C18.4295 42.661 18.4887 43.0137 18.6071 43.331C18.7278 43.6458 18.9054 43.8968 19.1397 44.0838C19.3765 44.2685 19.67 44.3608 20.0204 44.3608ZM29.2427 39.5455V40.2557H26.416V39.5455H29.2427ZM27.2399 38.2386H28.0779V43.4375C28.0779 43.6742 28.1123 43.8518 28.1809 43.9702C28.252 44.0862 28.3419 44.1643 28.4508 44.2045C28.5621 44.2424 28.6793 44.2614 28.8024 44.2614C28.8947 44.2614 28.9705 44.2566 29.0297 44.2472C29.0888 44.2353 29.1362 44.2259 29.1717 44.2188L29.3422 44.9716C29.2853 44.9929 29.206 45.0142 29.1042 45.0355C29.0024 45.0592 28.8734 45.071 28.7172 45.071C28.4804 45.071 28.2484 45.0201 28.0211 44.9183C27.7962 44.8165 27.6092 44.6615 27.46 44.4531C27.3133 44.2448 27.2399 43.982 27.2399 43.6648V38.2386ZM31.4586 41.7188V45H30.6206V37.7273H31.4586V40.3977H31.5297C31.6575 40.116 31.8493 39.8923 32.1049 39.7266C32.363 39.5585 32.7063 39.4744 33.1348 39.4744C33.5065 39.4744 33.832 39.549 34.1113 39.6982C34.3907 39.8449 34.6073 40.071 34.7612 40.3764C34.9174 40.6795 34.9956 41.0653 34.9956 41.5341V45H34.1575V41.5909C34.1575 41.1577 34.045 40.8227 33.8201 40.5859C33.5976 40.3468 33.2886 40.2273 32.8933 40.2273C32.6187 40.2273 32.3725 40.2853 32.1547 40.4013C31.9392 40.5173 31.7688 40.6866 31.6433 40.9091C31.5202 41.1316 31.4586 41.4015 31.4586 41.7188ZM38.8157 45.1136C38.2901 45.1136 37.8368 44.9976 37.4556 44.7656C37.0768 44.5312 36.7844 44.2045 36.5785 43.7855C36.3749 43.3641 36.2731 42.8741 36.2731 42.3153C36.2731 41.7566 36.3749 41.2642 36.5785 40.8381C36.7844 40.4096 37.0709 40.0758 37.4379 39.8366C37.8072 39.5952 38.238 39.4744 38.7305 39.4744C39.0146 39.4744 39.2951 39.5218 39.5721 39.6165C39.8491 39.7112 40.1012 39.8651 40.3285 40.0781C40.5558 40.2888 40.7369 40.5682 40.8718 40.9162C41.0067 41.2642 41.0742 41.6927 41.0742 42.2017V42.5568H36.8697V41.8324H40.2219C40.2219 41.5246 40.1604 41.25 40.0373 41.0085C39.9165 40.767 39.7437 40.5765 39.5188 40.4368C39.2963 40.2971 39.0335 40.2273 38.7305 40.2273C38.3967 40.2273 38.1078 40.3101 37.864 40.4759C37.6225 40.6392 37.4367 40.8523 37.3065 41.1151C37.1763 41.3778 37.1112 41.6596 37.1112 41.9602V42.4432C37.1112 42.8551 37.1822 43.2043 37.3242 43.4908C37.4686 43.7749 37.6687 43.9915 37.9244 44.1406C38.18 44.2874 38.4772 44.3608 38.8157 44.3608C39.0359 44.3608 39.2347 44.33 39.4123 44.2685C39.5922 44.2045 39.7473 44.1098 39.8775 43.9844C40.0077 43.8565 40.1083 43.6979 40.1793 43.5085L40.989 43.7358C40.9038 44.0104 40.7605 44.2519 40.5593 44.4602C40.3581 44.6662 40.1095 44.8272 39.8136 44.9432C39.5176 45.0568 39.185 45.1136 38.8157 45.1136ZM45.1616 47.0455V39.5455H45.9712V40.4119H46.0707C46.1322 40.3172 46.2174 40.1965 46.3263 40.0497C46.4376 39.9006 46.5962 39.768 46.8022 39.652C47.0105 39.5336 47.2923 39.4744 47.6474 39.4744C48.1067 39.4744 48.5115 39.5893 48.8619 39.8189C49.2122 40.0485 49.4857 40.3741 49.6822 40.7955C49.8787 41.2169 49.9769 41.714 49.9769 42.2869C49.9769 42.8646 49.8787 43.3653 49.6822 43.7891C49.4857 44.2105 49.2134 44.5372 48.8654 44.7692C48.5174 44.9988 48.1161 45.1136 47.6616 45.1136C47.3112 45.1136 47.0307 45.0556 46.82 44.9396C46.6093 44.8213 46.4471 44.6875 46.3335 44.5384C46.2198 44.3868 46.1322 44.2614 46.0707 44.1619H45.9996V47.0455H45.1616ZM45.9854 42.2727C45.9854 42.6847 46.0458 43.0481 46.1665 43.3629C46.2873 43.6754 46.4637 43.9205 46.6957 44.098C46.9277 44.2732 47.2118 44.3608 47.5479 44.3608C47.8983 44.3608 48.1907 44.2685 48.4251 44.0838C48.6618 43.8968 48.8394 43.6458 48.9577 43.331C49.0785 43.0137 49.1388 42.661 49.1388 42.2727C49.1388 41.8892 49.0797 41.5436 48.9613 41.2358C48.8453 40.9257 48.6689 40.6806 48.4322 40.5007C48.1978 40.3184 47.9031 40.2273 47.5479 40.2273C47.207 40.2273 46.9206 40.3137 46.6886 40.4865C46.4566 40.657 46.2814 40.8961 46.163 41.2038C46.0446 41.5092 45.9854 41.8655 45.9854 42.2727ZM52.8604 45.1278C52.5148 45.1278 52.2011 45.0627 51.9194 44.9325C51.6377 44.8 51.4139 44.6094 51.2482 44.3608C51.0825 44.1098 50.9996 43.8068 50.9996 43.4517C50.9996 43.1392 51.0612 42.8859 51.1843 42.6918C51.3074 42.4953 51.4719 42.3414 51.6779 42.2301C51.8839 42.1188 52.1112 42.036 52.3597 41.9815C52.6107 41.9247 52.8628 41.8797 53.1161 41.8466C53.4476 41.804 53.7163 41.772 53.9222 41.7507C54.1306 41.727 54.2821 41.688 54.3768 41.6335C54.4738 41.5791 54.5224 41.4844 54.5224 41.3494V41.321C54.5224 40.9706 54.4265 40.6984 54.2347 40.5043C54.0453 40.3101 53.7577 40.2131 53.3718 40.2131C52.9717 40.2131 52.658 40.3007 52.4308 40.4759C52.2035 40.651 52.0437 40.8381 51.9513 41.0369L51.1559 40.7528C51.2979 40.4214 51.4873 40.1634 51.7241 39.9787C51.9632 39.7917 52.2236 39.6615 52.5053 39.5881C52.7894 39.5123 53.0688 39.4744 53.3434 39.4744C53.5186 39.4744 53.7198 39.4957 53.9471 39.5384C54.1767 39.5786 54.3981 39.6626 54.6112 39.7905C54.8266 39.9183 55.0053 40.1113 55.1474 40.3693C55.2894 40.6274 55.3604 40.973 55.3604 41.4062V45H54.5224V44.2614H54.4798C54.4229 44.3797 54.3282 44.5064 54.1957 44.6413C54.0631 44.7763 53.8867 44.8911 53.6665 44.9858C53.4464 45.0805 53.1777 45.1278 52.8604 45.1278ZM52.9883 44.375C53.3197 44.375 53.5991 44.3099 53.8263 44.1797C54.056 44.0495 54.2288 43.8814 54.3448 43.6754C54.4632 43.4695 54.5224 43.2528 54.5224 43.0256V42.2585C54.4869 42.3011 54.4087 42.3402 54.288 42.3757C54.1696 42.4089 54.0323 42.4384 53.8761 42.4645C53.7222 42.4882 53.5719 42.5095 53.4251 42.5284C53.2807 42.545 53.1635 42.5592 53.0735 42.571C52.8557 42.5994 52.6521 42.6456 52.4627 42.7095C52.2757 42.7711 52.1242 42.8646 52.0082 42.9901C51.8945 43.1132 51.8377 43.2812 51.8377 43.4943C51.8377 43.7855 51.9454 44.0057 52.1609 44.1548C52.3787 44.3016 52.6545 44.375 52.9883 44.375ZM59.106 45.1136C58.5946 45.1136 58.1543 44.9929 57.785 44.7514C57.4157 44.5099 57.1316 44.1773 56.9327 43.7536C56.7338 43.3298 56.6344 42.8456 56.6344 42.3011C56.6344 41.7472 56.7362 41.2583 56.9398 40.8345C57.1458 40.4084 57.4322 40.0758 57.7992 39.8366C58.1685 39.5952 58.5994 39.4744 59.0918 39.4744C59.4753 39.4744 59.821 39.5455 60.1287 39.6875C60.4365 39.8295 60.6886 40.0284 60.8851 40.2841C61.0816 40.5398 61.2035 40.8381 61.2509 41.179H60.4128C60.3489 40.9304 60.2069 40.7102 59.9867 40.5185C59.7689 40.3243 59.4753 40.2273 59.106 40.2273C58.7793 40.2273 58.4928 40.3125 58.2466 40.483C58.0028 40.651 57.8122 40.889 57.6749 41.1967C57.54 41.5021 57.4725 41.8608 57.4725 42.2727C57.4725 42.6941 57.5388 43.0611 57.6713 43.3736C57.8063 43.6861 57.9957 43.9287 58.2395 44.1016C58.4857 44.2744 58.7746 44.3608 59.106 44.3608C59.3238 44.3608 59.5215 44.3229 59.699 44.2472C59.8766 44.1714 60.0269 44.0625 60.15 43.9205C60.2731 43.7784 60.3607 43.608 60.4128 43.4091H61.2509C61.2035 43.7311 61.0864 44.0211 60.8993 44.2791C60.7147 44.5348 60.4696 44.7384 60.1642 44.8899C59.8612 45.0391 59.5085 45.1136 59.106 45.1136ZM63.2573 43.0114L63.2431 41.9744H63.4135L65.7999 39.5455H66.8368L64.2942 42.1165H64.2232L63.2573 43.0114ZM62.476 45V37.7273H63.3141V45H62.476ZM65.9419 45L63.8113 42.3011L64.4078 41.7188L67.0073 45H65.9419ZM69.0234 37.7273L68.9524 42.9545H68.1286L68.0575 37.7273H69.0234ZM68.5405 45.0568C68.3653 45.0568 68.215 44.9941 68.0895 44.8686C67.964 44.7431 67.9013 44.5928 67.9013 44.4176C67.9013 44.2424 67.964 44.0921 68.0895 43.9666C68.215 43.8411 68.3653 43.7784 68.5405 43.7784C68.7157 43.7784 68.866 43.8411 68.9915 43.9666C69.117 44.0921 69.1797 44.2424 69.1797 44.4176C69.1797 44.5336 69.1501 44.6402 69.0909 44.7372C69.0341 44.8343 68.9571 44.9124 68.8601 44.9716C68.7654 45.0284 68.6589 45.0568 68.5405 45.0568Z" fill="black"/>
<path d="M10.858 28.5455C10.8153 28.1856 10.6425 27.9062 10.3395 27.7074C10.0365 27.5085 9.66477 27.4091 9.22443 27.4091C8.90246 27.4091 8.62074 27.4612 8.37926 27.5653C8.14015 27.6695 7.95313 27.8127 7.81818 27.995C7.68561 28.1773 7.61932 28.3845 7.61932 28.6165C7.61932 28.8106 7.66548 28.9775 7.75781 29.1172C7.85251 29.2545 7.97325 29.3693 8.12003 29.4616C8.26681 29.5516 8.42069 29.6262 8.58168 29.6854C8.74266 29.7422 8.89062 29.7884 9.02557 29.8239L9.7642 30.0227C9.9536 30.0724 10.1643 30.1411 10.3963 30.2287C10.6307 30.3163 10.8544 30.4358 11.0675 30.5874C11.2829 30.7365 11.4605 30.9283 11.6001 31.1626C11.7398 31.397 11.8097 31.6847 11.8097 32.0256C11.8097 32.4186 11.7067 32.7737 11.5007 33.0909C11.2971 33.4081 10.9988 33.6603 10.6058 33.8473C10.2152 34.0343 9.74053 34.1278 9.18182 34.1278C8.66098 34.1278 8.20999 34.0438 7.82884 33.8757C7.45005 33.7076 7.15175 33.4732 6.93395 33.1726C6.71851 32.8719 6.59659 32.5227 6.56818 32.125H7.47727C7.50095 32.3996 7.59328 32.6269 7.75426 32.8068C7.91761 32.9844 8.12358 33.117 8.37216 33.2045C8.62311 33.2898 8.89299 33.3324 9.18182 33.3324C9.51799 33.3324 9.81984 33.2779 10.0874 33.169C10.3549 33.0578 10.5668 32.9039 10.723 32.7074C10.8793 32.5085 10.9574 32.2765 10.9574 32.0114C10.9574 31.7699 10.8899 31.5734 10.755 31.4219C10.62 31.2704 10.4425 31.1473 10.2223 31.0526C10.0021 30.9579 9.7642 30.875 9.50852 30.804L8.61364 30.5483C8.04545 30.3849 7.59564 30.1518 7.2642 29.8487C6.93277 29.5457 6.76705 29.1491 6.76705 28.6591C6.76705 28.2519 6.87713 27.8968 7.0973 27.5938C7.31984 27.2884 7.61813 27.0516 7.99219 26.8835C8.36861 26.7131 8.78883 26.6278 9.25284 26.6278C9.72159 26.6278 10.1383 26.7119 10.5028 26.88C10.8674 27.0457 11.1563 27.273 11.3693 27.5618C11.5848 27.8506 11.6984 28.1785 11.7102 28.5455H10.858ZM13.144 34V28.5455H13.9821V34H13.144ZM13.5701 27.6364C13.4068 27.6364 13.2659 27.5807 13.1475 27.4695C13.0315 27.3582 12.9735 27.2244 12.9735 27.0682C12.9735 26.9119 13.0315 26.7782 13.1475 26.6669C13.2659 26.5556 13.4068 26.5 13.5701 26.5C13.7335 26.5 13.8732 26.5556 13.9892 26.6669C14.1075 26.7782 14.1667 26.9119 14.1667 27.0682C14.1667 27.2244 14.1075 27.3582 13.9892 27.4695C13.8732 27.5807 13.7335 27.6364 13.5701 27.6364ZM15.517 34V28.5455H16.3267V29.3977H16.3977C16.5114 29.1065 16.6948 28.8804 16.9482 28.7195C17.2015 28.5561 17.5057 28.4744 17.8608 28.4744C18.2206 28.4744 18.5201 28.5561 18.7592 28.7195C19.0007 28.8804 19.1889 29.1065 19.3239 29.3977H19.3807C19.5204 29.116 19.7299 28.8923 20.0092 28.7266C20.2886 28.5585 20.6236 28.4744 21.0142 28.4744C21.5019 28.4744 21.9008 28.6271 22.2109 28.9325C22.5211 29.2356 22.6761 29.7079 22.6761 30.3494V34H21.8381V30.3494C21.8381 29.947 21.728 29.6593 21.5078 29.4865C21.2876 29.3137 21.0284 29.2273 20.7301 29.2273C20.3466 29.2273 20.0495 29.3433 19.8388 29.5753C19.6281 29.8049 19.5227 30.0961 19.5227 30.4489V34H18.6705V30.2642C18.6705 29.9541 18.5698 29.7043 18.3686 29.5149C18.1674 29.3232 17.9081 29.2273 17.5909 29.2273C17.3731 29.2273 17.1695 29.2853 16.9801 29.4013C16.7931 29.5173 16.6416 29.6783 16.5256 29.8842C16.4119 30.0878 16.3551 30.3234 16.3551 30.5909V34H15.517ZM24.2085 36.0455V28.5455H25.0181V29.4119H25.1175C25.1791 29.3172 25.2643 29.1965 25.3732 29.0497C25.4845 28.9006 25.6431 28.768 25.8491 28.652C26.0574 28.5336 26.3391 28.4744 26.6942 28.4744C27.1535 28.4744 27.5584 28.5893 27.9087 28.8189C28.2591 29.0485 28.5326 29.3741 28.729 29.7955C28.9255 30.2169 29.0238 30.714 29.0238 31.2869C29.0238 31.8646 28.9255 32.3653 28.729 32.7891C28.5326 33.2105 28.2603 33.5372 27.9123 33.7692C27.5643 33.9988 27.163 34.1136 26.7085 34.1136C26.3581 34.1136 26.0775 34.0556 25.8668 33.9396C25.6561 33.8213 25.494 33.6875 25.3803 33.5384C25.2667 33.3868 25.1791 33.2614 25.1175 33.1619H25.0465V36.0455H24.2085ZM25.0323 31.2727C25.0323 31.6847 25.0927 32.0481 25.2134 32.3629C25.3342 32.6754 25.5105 32.9205 25.7425 33.098C25.9746 33.2732 26.2586 33.3608 26.5948 33.3608C26.9452 33.3608 27.2376 33.2685 27.4719 33.0838C27.7087 32.8968 27.8862 32.6458 28.0046 32.331C28.1254 32.0137 28.1857 31.661 28.1857 31.2727C28.1857 30.8892 28.1265 30.5436 28.0082 30.2358C27.8922 29.9257 27.7158 29.6806 27.479 29.5007C27.2447 29.3184 26.9499 29.2273 26.5948 29.2273C26.2539 29.2273 25.9674 29.3137 25.7354 29.4865C25.5034 29.657 25.3282 29.8961 25.2099 30.2038C25.0915 30.5092 25.0323 30.8655 25.0323 31.2727ZM31.1403 26.7273V34H30.3022V26.7273H31.1403ZM34.9622 34.1136C34.4366 34.1136 33.9833 33.9976 33.6021 33.7656C33.2233 33.5312 32.9309 33.2045 32.725 32.7855C32.5214 32.3641 32.4196 31.8741 32.4196 31.3153C32.4196 30.7566 32.5214 30.2642 32.725 29.8381C32.9309 29.4096 33.2174 29.0758 33.5843 28.8366C33.9537 28.5952 34.3845 28.4744 34.877 28.4744C35.161 28.4744 35.4416 28.5218 35.7186 28.6165C35.9956 28.7112 36.2477 28.8651 36.475 29.0781C36.7022 29.2888 36.8833 29.5682 37.0183 29.9162C37.1532 30.2642 37.2207 30.6927 37.2207 31.2017V31.5568H33.0162V30.8324H36.3684C36.3684 30.5246 36.3069 30.25 36.1838 30.0085C36.063 29.767 35.8902 29.5765 35.6653 29.4368C35.4428 29.2971 35.18 29.2273 34.877 29.2273C34.5431 29.2273 34.2543 29.3101 34.0105 29.4759C33.769 29.6392 33.5832 29.8523 33.4529 30.1151C33.3227 30.3778 33.2576 30.6596 33.2576 30.9602V31.4432C33.2576 31.8551 33.3287 32.2043 33.4707 32.4908C33.6151 32.7749 33.8152 32.9915 34.0708 33.1406C34.3265 33.2874 34.6236 33.3608 34.9622 33.3608C35.1824 33.3608 35.3812 33.33 35.5588 33.2685C35.7387 33.2045 35.8938 33.1098 36.024 32.9844C36.1542 32.8565 36.2548 32.6979 36.3258 32.5085L37.1355 32.7358C37.0502 33.0104 36.907 33.2519 36.7058 33.4602C36.5046 33.6662 36.256 33.8272 35.96 33.9432C35.6641 34.0568 35.3315 34.1136 34.9622 34.1136ZM47.274 29H46.3933C46.3412 28.7467 46.2501 28.5241 46.1199 28.3324C45.992 28.1406 45.8358 27.9796 45.6511 27.8494C45.4688 27.7169 45.2664 27.6174 45.0439 27.5511C44.8213 27.4848 44.5893 27.4517 44.3478 27.4517C43.9075 27.4517 43.5086 27.563 43.1511 27.7855C42.796 28.008 42.5131 28.3359 42.3024 28.7692C42.094 29.2024 41.9899 29.7339 41.9899 30.3636C41.9899 30.9934 42.094 31.5249 42.3024 31.9581C42.5131 32.3913 42.796 32.7192 43.1511 32.9418C43.5086 33.1643 43.9075 33.2756 44.3478 33.2756C44.5893 33.2756 44.8213 33.2424 45.0439 33.1761C45.2664 33.1098 45.4688 33.0116 45.6511 32.8814C45.8358 32.7488 45.992 32.5866 46.1199 32.3949C46.2501 32.2008 46.3412 31.9782 46.3933 31.7273H47.274C47.2077 32.099 47.0869 32.4316 46.9118 32.7251C46.7366 33.0187 46.5188 33.2685 46.2583 33.4744C45.9979 33.678 45.7056 33.8331 45.3812 33.9396C45.0592 34.0462 44.7148 34.0994 44.3478 34.0994C43.7276 34.0994 43.176 33.9479 42.693 33.6449C42.21 33.3419 41.8301 32.911 41.5531 32.3523C41.2761 31.7936 41.1376 31.1307 41.1376 30.3636C41.1376 29.5966 41.2761 28.9337 41.5531 28.375C41.8301 27.8163 42.21 27.3854 42.693 27.0824C43.176 26.7794 43.7276 26.6278 44.3478 26.6278C44.7148 26.6278 45.0592 26.6811 45.3812 26.7876C45.7056 26.8942 45.9979 27.0504 46.2583 27.2564C46.5188 27.46 46.7366 27.7086 46.9118 28.0021C47.0869 28.2933 47.2077 28.6259 47.274 29ZM48.6971 34V26.7273H51.1545C51.7227 26.7273 52.189 26.8243 52.5536 27.0185C52.9182 27.2102 53.1881 27.4742 53.3633 27.8104C53.5385 28.1465 53.6261 28.5289 53.6261 28.9574C53.6261 29.3859 53.5385 29.7659 53.3633 30.0973C53.1881 30.4287 52.9194 30.6892 52.5572 30.8786C52.195 31.0656 51.7321 31.1591 51.1687 31.1591H49.18V30.3636H51.1403C51.5285 30.3636 51.841 30.3068 52.0778 30.1932C52.3169 30.0795 52.4897 29.9186 52.5962 29.7102C52.7051 29.4995 52.7596 29.2486 52.7596 28.9574C52.7596 28.6662 52.7051 28.4117 52.5962 28.1939C52.4873 27.9761 52.3133 27.808 52.0742 27.6896C51.8351 27.5689 51.5191 27.5085 51.1261 27.5085H49.5778V34H48.6971ZM52.1204 30.733L53.9102 34H52.8874L51.1261 30.733H52.1204ZM55.0936 26.7273H56.1447L58.6163 32.7642H58.7015L61.1731 26.7273H62.2243V34H61.4004V28.4744H61.3294L59.0566 34H58.2612L55.9885 28.4744H55.9174V34H55.0936V26.7273Z" fill="black"/>
<path d="M10.858 28.5455L10.6097 28.5749L10.6358 28.7955H10.858V28.5455ZM10.3395 27.7074L10.2023 27.9164L10.3395 27.7074ZM8.37926 27.5653L8.28024 27.3358L8.27941 27.3361L8.37926 27.5653ZM7.81818 27.995L7.61724 27.8463L7.616 27.848L7.81818 27.995ZM7.75781 29.1172L7.54922 29.2551L7.55201 29.2591L7.75781 29.1172ZM8.12003 29.4616L7.98691 29.6733L7.98939 29.6748L8.12003 29.4616ZM8.58168 29.6854L8.4954 29.92L8.49847 29.9211L8.58168 29.6854ZM9.02557 29.8239L9.09056 29.5825L9.08919 29.5821L9.02557 29.8239ZM9.7642 30.0227L9.69921 30.2641L9.70073 30.2645L9.7642 30.0227ZM10.3963 30.2287L10.308 30.4626L10.3088 30.4629L10.3963 30.2287ZM11.0675 30.5874L10.9226 30.7911L10.9252 30.7929L11.0675 30.5874ZM11.6001 31.1626L11.8149 31.0347L11.6001 31.1626ZM11.5007 33.0909L11.291 32.9548L11.2903 32.9559L11.5007 33.0909ZM10.6058 33.8473L10.4984 33.6216L10.4979 33.6218L10.6058 33.8473ZM7.82884 33.8757L7.72743 34.1042L7.72796 34.1045L7.82884 33.8757ZM6.93395 33.1726L6.73073 33.3182L6.73149 33.3192L6.93395 33.1726ZM6.56818 32.125V31.875H6.29969L6.31882 32.1428L6.56818 32.125ZM7.47727 32.125L7.72635 32.1035L7.70665 31.875H7.47727V32.125ZM7.75426 32.8068L7.56793 32.9735L7.57028 32.9761L7.75426 32.8068ZM8.37216 33.2045L8.28907 33.4403L8.29176 33.4413L8.37216 33.2045ZM10.0874 33.169L10.1816 33.4006L10.1834 33.3999L10.0874 33.169ZM10.723 32.7074L10.9187 32.863L10.9196 32.8618L10.723 32.7074ZM10.755 31.4219L10.9417 31.2556L10.755 31.4219ZM10.2223 31.0526L10.1235 31.2822H10.1235L10.2223 31.0526ZM9.50852 30.804L9.43984 31.0444L9.44161 31.0449L9.50852 30.804ZM8.61364 30.5483L8.54456 30.7886L8.54496 30.7887L8.61364 30.5483ZM7.2642 29.8487L7.09551 30.0332H7.09551L7.2642 29.8487ZM7.0973 27.5938L6.89525 27.4465L6.89505 27.4468L7.0973 27.5938ZM7.99219 26.8835L8.09466 27.1116L8.09531 27.1113L7.99219 26.8835ZM10.5028 26.88L10.3982 27.107L10.3994 27.1076L10.5028 26.88ZM11.3693 27.5618L11.1681 27.7102L11.1689 27.7113L11.3693 27.5618ZM11.7102 28.5455V28.7955H11.9684L11.9601 28.5374L11.7102 28.5455ZM11.1062 28.5161C11.0549 28.0828 10.8414 27.7377 10.4767 27.4984L10.2023 27.9164C10.4436 28.0748 10.5758 28.2884 10.6097 28.5749L11.1062 28.5161ZM10.4767 27.4984C10.1249 27.2675 9.70294 27.1591 9.22443 27.1591V27.6591C9.6266 27.6591 9.94806 27.7495 10.2023 27.9164L10.4767 27.4984ZM9.22443 27.1591C8.87585 27.1591 8.55916 27.2155 8.28024 27.3358L8.47828 27.7949C8.68231 27.7069 8.92908 27.6591 9.22443 27.6591V27.1591ZM8.27941 27.3361C8.00625 27.4551 7.78195 27.6238 7.61725 27.8463L8.01912 28.1438C8.1243 28.0017 8.27406 27.8839 8.47911 27.7945L8.27941 27.3361ZM7.616 27.848C7.45138 28.0743 7.36932 28.3333 7.36932 28.6165H7.86932C7.86932 28.4356 7.91983 28.2803 8.02037 28.1421L7.616 27.848ZM7.36932 28.6165C7.36932 28.8516 7.42579 29.0683 7.54926 29.255L7.96637 28.9793C7.90517 28.8868 7.86932 28.7696 7.86932 28.6165H7.36932ZM7.55201 29.2591C7.66672 29.4255 7.81259 29.5636 7.98692 29.6733L8.25314 29.25C8.13391 29.175 8.0383 29.0835 7.96362 28.9753L7.55201 29.2591ZM7.98939 29.6748C8.15016 29.7733 8.3189 29.8551 8.49541 29.92L8.66794 29.4507C8.52248 29.3972 8.38345 29.3299 8.25067 29.2485L7.98939 29.6748ZM8.49847 29.9211C8.66454 29.9797 8.81913 30.028 8.96195 30.0656L9.08919 29.5821C8.96212 29.5487 8.82079 29.5046 8.66488 29.4496L8.49847 29.9211ZM8.96057 30.0653L9.69921 30.2641L9.8292 29.7813L9.09056 29.5825L8.96057 30.0653ZM9.70073 30.2645C9.87985 30.3116 10.0821 30.3773 10.308 30.4626L10.4846 29.9948C10.2465 29.9049 10.0273 29.8333 9.82768 29.7809L9.70073 30.2645ZM10.3088 30.4629C10.5219 30.5425 10.7264 30.6516 10.9226 30.7911L11.2124 30.3836C10.9824 30.2201 10.7395 30.0901 10.4838 29.9945L10.3088 30.4629ZM10.9252 30.7929C11.11 30.9208 11.2633 31.0857 11.3854 31.2906L11.8149 31.0347C11.6577 30.7708 11.4559 30.5522 11.2098 30.3818L10.9252 30.7929ZM11.3854 31.2906C11.4969 31.4777 11.5597 31.7186 11.5597 32.0256H12.0597C12.0597 31.6507 11.9827 31.3163 11.8149 31.0347L11.3854 31.2906ZM11.5597 32.0256C11.5597 32.3722 11.4696 32.6797 11.291 32.9548L11.7104 33.227C11.9437 32.8676 12.0597 32.4649 12.0597 32.0256H11.5597ZM11.2903 32.9559C11.1156 33.2281 10.8559 33.4514 10.4984 33.6216L10.7133 34.073C11.1417 33.8691 11.4786 33.5882 11.7111 33.2259L11.2903 32.9559ZM10.4979 33.6218C10.1492 33.7887 9.71361 33.8778 9.18182 33.8778V34.3778C9.76745 34.3778 10.2812 34.2799 10.7138 34.0728L10.4979 33.6218ZM9.18182 33.8778C8.6873 33.8778 8.27219 33.798 7.92971 33.647L7.72796 34.1045C8.1478 34.2896 8.63467 34.3778 9.18182 34.3778V33.8778ZM7.93024 33.6472C7.58697 33.4949 7.32542 33.2868 7.13641 33.0259L6.73149 33.3192C6.97808 33.6597 7.31312 33.9204 7.72743 34.1042L7.93024 33.6472ZM7.13717 33.027C6.95072 32.7668 6.84293 32.4626 6.81755 32.1072L6.31882 32.1428C6.35025 32.5829 6.48631 32.9771 6.73073 33.3182L7.13717 33.027ZM6.56818 32.375H7.47727V31.875H6.56818V32.375ZM7.2282 32.1465C7.25583 32.467 7.36588 32.7477 7.56795 32.9735L7.94057 32.6401C7.82068 32.5061 7.74606 32.3322 7.72635 32.1035L7.2282 32.1465ZM7.57028 32.9761C7.76382 33.1865 8.00557 33.3404 8.28907 33.4403L8.45525 32.9688C8.24159 32.8935 8.07141 32.7823 7.93824 32.6376L7.57028 32.9761ZM8.29176 33.4413C8.57082 33.536 8.8681 33.5824 9.18182 33.5824V33.0824C8.91789 33.0824 8.67539 33.0435 8.45255 32.9678L8.29176 33.4413ZM9.18182 33.5824C9.54508 33.5824 9.87968 33.5235 10.1816 33.4006L9.9931 32.9375C9.76 33.0324 9.4909 33.0824 9.18182 33.0824V33.5824ZM10.1834 33.3999C10.4839 33.2749 10.7323 33.0974 10.9187 32.863L10.5273 32.5518C10.4012 32.7104 10.2259 32.8407 9.99135 32.9382L10.1834 33.3999ZM10.9196 32.8618C11.1122 32.6167 11.2074 32.3296 11.2074 32.0114H10.7074C10.7074 32.2234 10.6463 32.4004 10.5264 32.5529L10.9196 32.8618ZM11.2074 32.0114C11.2074 31.7209 11.1249 31.4613 10.9417 31.2556L10.5683 31.5881C10.6549 31.6855 10.7074 31.8189 10.7074 32.0114H11.2074ZM10.9417 31.2556C10.7784 31.0723 10.5688 30.9294 10.3211 30.8229L10.1235 31.2822C10.3161 31.3651 10.4617 31.4684 10.5683 31.5881L10.9417 31.2556ZM10.3211 30.8229C10.0895 30.7233 9.84084 30.6368 9.57543 30.5631L9.44161 31.0449C9.68757 31.1132 9.91474 31.1924 10.1235 31.2822L10.3211 30.8229ZM9.5772 30.5636L8.68232 30.3079L8.54496 30.7887L9.43984 31.0444L9.5772 30.5636ZM8.68271 30.308C8.14034 30.1521 7.72834 29.9343 7.4329 29.6642L7.09551 30.0332C7.46295 30.3692 7.95057 30.6178 8.54456 30.7886L8.68271 30.308ZM7.4329 29.6642C7.15831 29.4132 7.01705 29.0861 7.01705 28.6591H6.51705C6.51705 29.2122 6.70722 29.6782 7.09551 30.0332L7.4329 29.6642ZM7.01705 28.6591C7.01705 28.2998 7.11315 27.9973 7.29955 27.7407L6.89505 27.4468C6.64111 27.7963 6.51705 28.2039 6.51705 28.6591H7.01705ZM7.29935 27.741C7.49413 27.4737 7.75678 27.2634 8.09466 27.1116L7.88972 26.6555C7.47949 26.8398 7.14555 27.103 6.89525 27.4465L7.29935 27.741ZM8.09531 27.1113C8.43556 26.9572 8.82001 26.8778 9.25284 26.8778V26.3778C8.75764 26.3778 8.30165 26.469 7.88906 26.6558L8.09531 27.1113ZM9.25284 26.8778C9.69146 26.8778 10.0715 26.9564 10.3982 27.107L10.6075 26.6529C10.2051 26.4674 9.75172 26.3778 9.25284 26.3778V26.8778ZM10.3994 27.1076C10.7298 27.2577 10.9832 27.4595 11.1681 27.7102L11.5705 27.4134C11.3293 27.0864 11.0051 26.8336 10.6063 26.6524L10.3994 27.1076ZM11.1689 27.7113C11.3532 27.9583 11.4501 28.2366 11.4604 28.5535L11.9601 28.5374C11.9466 28.1204 11.8163 27.7429 11.5697 27.4123L11.1689 27.7113ZM11.7102 28.2955H10.858V28.7955H11.7102V28.2955ZM13.144 34H12.894V34.25H13.144V34ZM13.144 28.5455V28.2955H12.894V28.5455H13.144ZM13.9821 28.5455H14.2321V28.2955H13.9821V28.5455ZM13.9821 34V34.25H14.2321V34H13.9821ZM13.1475 27.4695L12.9745 27.6499L12.9763 27.6516L13.1475 27.4695ZM13.1475 26.6669L12.9763 26.4847L12.9745 26.4865L13.1475 26.6669ZM13.9892 26.6669L13.8161 26.8473L13.8179 26.8491L13.9892 26.6669ZM13.9892 27.4695L13.8179 27.2873L13.8161 27.289L13.9892 27.4695ZM13.394 34V28.5455H12.894V34H13.394ZM13.144 28.7955H13.9821V28.2955H13.144V28.7955ZM13.7321 28.5455V34H14.2321V28.5455H13.7321ZM13.9821 33.75H13.144V34.25H13.9821V33.75ZM13.5701 27.3864C13.47 27.3864 13.3905 27.3547 13.3188 27.2873L12.9763 27.6516C13.1413 27.8067 13.3435 27.8864 13.5701 27.8864V27.3864ZM13.3206 27.289C13.2522 27.2234 13.2235 27.1541 13.2235 27.0682H12.7235C12.7235 27.2947 12.8109 27.493 12.9745 27.6499L13.3206 27.289ZM13.2235 27.0682C13.2235 26.9822 13.2522 26.913 13.3206 26.8473L12.9745 26.4865C12.8109 26.6434 12.7235 26.8416 12.7235 27.0682H13.2235ZM13.3188 26.8491C13.3905 26.7816 13.47 26.75 13.5701 26.75V26.25C13.3435 26.25 13.1413 26.3296 12.9763 26.4847L13.3188 26.8491ZM13.5701 26.75C13.6702 26.75 13.7475 26.7815 13.8161 26.8473L14.1622 26.4865C13.9988 26.3298 13.7968 26.25 13.5701 26.25V26.75ZM13.8179 26.8491C13.8883 26.9152 13.9167 26.9839 13.9167 27.0682H14.4167C14.4167 26.8399 14.3268 26.6411 14.1604 26.4847L13.8179 26.8491ZM13.9167 27.0682C13.9167 27.1524 13.8883 27.2212 13.8179 27.2873L14.1604 27.6516C14.3268 27.4952 14.4167 27.2964 14.4167 27.0682H13.9167ZM13.8161 27.289C13.7475 27.3549 13.6702 27.3864 13.5701 27.3864V27.8864C13.7968 27.8864 13.9988 27.8066 14.1622 27.6499L13.8161 27.289ZM15.517 34H15.267V34.25H15.517V34ZM15.517 28.5455V28.2955H15.267V28.5455H15.517ZM16.3267 28.5455H16.5767V28.2955H16.3267V28.5455ZM16.3267 29.3977H16.0767V29.6477H16.3267V29.3977ZM16.3977 29.3977V29.6477H16.5685L16.6306 29.4886L16.3977 29.3977ZM16.9482 28.7195L17.0822 28.9305L17.0836 28.9296L16.9482 28.7195ZM18.7592 28.7195L18.6182 28.9259L18.6206 28.9275L18.7592 28.7195ZM19.3239 29.3977L19.097 29.5028L19.1642 29.6477H19.3239V29.3977ZM19.3807 29.3977V29.6477H19.5358L19.6047 29.5088L19.3807 29.3977ZM20.0092 28.7266L20.1368 28.9416L20.1381 28.9408L20.0092 28.7266ZM22.2109 28.9325L22.0355 29.1107L22.0362 29.1113L22.2109 28.9325ZM22.6761 34V34.25H22.9261V34H22.6761ZM21.8381 34H21.5881V34.25H21.8381V34ZM21.5078 29.4865L21.3535 29.6832L21.5078 29.4865ZM19.8388 29.5753L20.023 29.7443L20.0238 29.7434L19.8388 29.5753ZM19.5227 34V34.25H19.7727V34H19.5227ZM18.6705 34H18.4205V34.25H18.6705V34ZM18.3686 29.5149L18.1961 29.6959L18.1973 29.697L18.3686 29.5149ZM16.9801 29.4013L16.8495 29.1881L16.8483 29.1888L16.9801 29.4013ZM16.5256 29.8842L16.3077 29.7615L16.3073 29.7624L16.5256 29.8842ZM16.3551 34V34.25H16.6051V34H16.3551ZM15.767 34V28.5455H15.267V34H15.767ZM15.517 28.7955H16.3267V28.2955H15.517V28.7955ZM16.0767 28.5455V29.3977H16.5767V28.5455H16.0767ZM16.3267 29.6477H16.3977V29.1477H16.3267V29.6477ZM16.6306 29.4886C16.7258 29.2448 16.8757 29.0617 17.0822 28.9305L16.8141 28.5085C16.5139 28.6992 16.2969 28.9683 16.1648 29.3068L16.6306 29.4886ZM17.0836 28.9296C17.2898 28.7966 17.545 28.7244 17.8608 28.7244V28.2244C17.4663 28.2244 17.1131 28.3156 16.8127 28.5094L17.0836 28.9296ZM17.8608 28.7244C18.1826 28.7244 18.4298 28.7971 18.6182 28.9259L18.9003 28.513C18.6105 28.3151 18.2587 28.2244 17.8608 28.2244V28.7244ZM18.6206 28.9275C18.8198 29.0603 18.9793 29.2489 19.097 29.5028L19.5507 29.2926C19.3985 28.9642 19.1817 28.7006 18.8979 28.5114L18.6206 28.9275ZM19.3239 29.6477H19.3807V29.1477H19.3239V29.6477ZM19.6047 29.5088C19.7222 29.2718 19.8975 29.0835 20.1368 28.9416L19.8817 28.5115C19.5623 28.701 19.3185 28.9602 19.1567 29.2867L19.6047 29.5088ZM20.1381 28.9408C20.3715 28.8004 20.66 28.7244 21.0142 28.7244V28.2244C20.5872 28.2244 20.2057 28.3166 19.8803 28.5123L20.1381 28.9408ZM21.0142 28.7244C21.4449 28.7244 21.778 28.857 22.0355 29.1107L22.3863 28.7544C22.0236 28.3972 21.5589 28.2244 21.0142 28.2244V28.7244ZM22.0362 29.1113C22.2792 29.3488 22.4261 29.743 22.4261 30.3494H22.9261C22.9261 29.6727 22.7629 29.1223 22.3857 28.7537L22.0362 29.1113ZM22.4261 30.3494V34H22.9261V30.3494H22.4261ZM22.6761 33.75H21.8381V34.25H22.6761V33.75ZM22.0881 34V30.3494H21.5881V34H22.0881ZM22.0881 30.3494C22.0881 29.9054 21.9658 29.5282 21.6622 29.2899L21.3535 29.6832C21.4901 29.7905 21.5881 29.9886 21.5881 30.3494H22.0881ZM21.6622 29.2899C21.395 29.0801 21.0804 28.9773 20.7301 28.9773V29.4773C20.9764 29.4773 21.1803 29.5473 21.3535 29.6832L21.6622 29.2899ZM20.7301 28.9773C20.2931 28.9773 19.9221 29.1116 19.6537 29.4072L20.0238 29.7434C20.1768 29.5749 20.4 29.4773 20.7301 29.4773V28.9773ZM19.6546 29.4063C19.3959 29.6882 19.2727 30.0424 19.2727 30.4489H19.7727C19.7727 30.1498 19.8602 29.9217 20.023 29.7443L19.6546 29.4063ZM19.2727 30.4489V34H19.7727V30.4489H19.2727ZM19.5227 33.75H18.6705V34.25H19.5227V33.75ZM18.9205 34V30.2642H18.4205V34H18.9205ZM18.9205 30.2642C18.9205 29.8944 18.7978 29.5755 18.5399 29.3329L18.1973 29.697C18.3419 29.8331 18.4205 30.0137 18.4205 30.2642H18.9205ZM18.5411 29.3339C18.2867 29.0915 17.9626 28.9773 17.5909 28.9773V29.4773C17.8537 29.4773 18.048 29.5548 18.1961 29.6959L18.5411 29.3339ZM17.5909 28.9773C17.3261 28.9773 17.0774 29.0485 16.8495 29.1881L17.1107 29.6145C17.2616 29.522 17.4201 29.4773 17.5909 29.4773V28.9773ZM16.8483 29.1888C16.6229 29.3287 16.4428 29.5217 16.3077 29.7615L16.7434 30.0069C16.8403 29.8348 16.9633 29.7059 17.1119 29.6137L16.8483 29.1888ZM16.3073 29.7624C16.17 30.0084 16.1051 30.2871 16.1051 30.5909H16.6051C16.6051 30.3597 16.6539 30.1672 16.7439 30.0061L16.3073 29.7624ZM16.1051 30.5909V34H16.6051V30.5909H16.1051ZM16.3551 33.75H15.517V34.25H16.3551V33.75ZM24.2085 36.0455H23.9585V36.2955H24.2085V36.0455ZM24.2085 28.5455V28.2955H23.9585V28.5455H24.2085ZM25.0181 28.5455H25.2681V28.2955H25.0181V28.5455ZM25.0181 29.4119H24.7681V29.6619H25.0181V29.4119ZM25.1175 29.4119V29.6619H25.2532L25.3272 29.5482L25.1175 29.4119ZM25.3732 29.0497L25.1728 28.9002L25.1724 28.9008L25.3732 29.0497ZM25.8491 28.652L25.9718 28.8698L25.9726 28.8694L25.8491 28.652ZM27.9087 28.8189L28.0458 28.6098L27.9087 28.8189ZM28.729 29.7955L28.9556 29.6898L28.729 29.7955ZM28.729 32.7891L28.9556 32.8947L28.9559 32.8942L28.729 32.7891ZM27.9123 33.7692L28.05 33.9778L28.051 33.9772L27.9123 33.7692ZM25.8668 33.9396L25.7444 34.1576L25.7463 34.1586L25.8668 33.9396ZM25.3803 33.5384L25.1803 33.6884L25.1815 33.6899L25.3803 33.5384ZM25.1175 33.1619L25.3301 33.0303L25.2568 32.9119H25.1175V33.1619ZM25.0465 33.1619V32.9119H24.7965V33.1619H25.0465ZM25.0465 36.0455V36.2955H25.2965V36.0455H25.0465ZM25.2134 32.3629L24.98 32.4524L24.9802 32.453L25.2134 32.3629ZM25.7425 33.098L25.5906 33.2965L25.5919 33.2975L25.7425 33.098ZM27.4719 33.0838L27.6267 33.2802L27.6269 33.28L27.4719 33.0838ZM28.0046 32.331L27.771 32.242L27.7706 32.243L28.0046 32.331ZM28.0082 30.2358L27.774 30.3234L27.7748 30.3255L28.0082 30.2358ZM27.479 29.5007L27.3256 29.6981L27.3278 29.6998L27.479 29.5007ZM25.7354 29.4865L25.8835 29.688L25.8848 29.687L25.7354 29.4865ZM25.2099 30.2038L25.443 30.2942L25.4432 30.2936L25.2099 30.2038ZM24.4585 36.0455V28.5455H23.9585V36.0455H24.4585ZM24.2085 28.7955H25.0181V28.2955H24.2085V28.7955ZM24.7681 28.5455V29.4119H25.2681V28.5455H24.7681ZM25.0181 29.6619H25.1175V29.1619H25.0181V29.6619ZM25.3272 29.5482C25.3847 29.4596 25.4665 29.3435 25.574 29.1987L25.1724 28.9008C25.0621 29.0495 24.9735 29.1749 24.9079 29.2757L25.3272 29.5482ZM25.5736 29.1992C25.6592 29.0845 25.7883 28.9732 25.9718 28.8698L25.7264 28.4342C25.498 28.5628 25.3098 28.7167 25.1728 28.9002L25.5736 29.1992ZM25.9726 28.8694C26.1294 28.7803 26.363 28.7244 26.6942 28.7244V28.2244C26.3152 28.2244 25.9854 28.287 25.7256 28.4346L25.9726 28.8694ZM26.6942 28.7244C27.1097 28.7244 27.4659 28.8276 27.7717 29.028L28.0458 28.6098C27.6508 28.3509 27.1973 28.2244 26.6942 28.2244V28.7244ZM27.7717 29.028C28.079 29.2294 28.3234 29.5171 28.5025 29.9011L28.9556 29.6898C28.7417 29.231 28.4392 28.8677 28.0458 28.6098L27.7717 29.028ZM28.5025 29.9011C28.6804 30.2827 28.7738 30.7422 28.7738 31.2869H29.2738C29.2738 30.6858 29.1707 30.1511 28.9556 29.6898L28.5025 29.9011ZM28.7738 31.2869C28.7738 31.8366 28.6803 32.2999 28.5022 32.6839L28.9559 32.8942C29.1708 32.4307 29.2738 31.8925 29.2738 31.2869H28.7738ZM28.5025 32.6834C28.3231 33.0681 28.0793 33.3573 27.7736 33.5612L28.051 33.9772C28.4413 33.717 28.742 33.3529 28.9556 32.8947L28.5025 32.6834ZM27.7746 33.5605C27.4711 33.7608 27.1186 33.8636 26.7085 33.8636V34.3636C27.2073 34.3636 27.6574 34.2369 28.05 33.9778L27.7746 33.5605ZM26.7085 33.8636C26.3823 33.8636 26.1481 33.8091 25.9874 33.7206L25.7463 34.1586C26.007 34.3022 26.3339 34.3636 26.7085 34.3636V33.8636ZM25.9893 33.7217C25.8001 33.6154 25.6671 33.5022 25.5792 33.3868L25.1815 33.6899C25.3208 33.8728 25.5122 34.0271 25.7444 34.1576L25.9893 33.7217ZM25.5803 33.3884C25.4688 33.2396 25.3861 33.1208 25.3301 33.0303L24.905 33.2935C24.9721 33.4019 25.0646 33.534 25.1803 33.6884L25.5803 33.3884ZM25.1175 32.9119H25.0465V33.4119H25.1175V32.9119ZM24.7965 33.1619V36.0455H25.2965V33.1619H24.7965ZM25.0465 35.7955H24.2085V36.2955H25.0465V35.7955ZM24.7823 31.2727C24.7823 31.7087 24.8462 32.1034 24.98 32.4524L25.4468 32.2734C25.3392 31.9927 25.2823 31.6606 25.2823 31.2727H24.7823ZM24.9802 32.453C25.1151 32.802 25.3169 33.0871 25.5906 33.2965L25.8945 32.8995C25.7041 32.7538 25.5533 32.5488 25.4466 32.2728L24.9802 32.453ZM25.5919 33.2975C25.8739 33.5104 26.2131 33.6108 26.5948 33.6108V33.1108C26.3042 33.1108 26.0752 33.036 25.8932 32.8985L25.5919 33.2975ZM26.5948 33.6108C26.9911 33.6108 27.3408 33.5054 27.6267 33.2802L27.3172 32.8874C27.1343 33.0315 26.8993 33.1108 26.5948 33.1108V33.6108ZM27.6269 33.28C27.9034 33.0616 28.1061 32.7714 28.2386 32.4189L27.7706 32.243C27.6664 32.5203 27.514 32.732 27.317 32.8876L27.6269 33.28ZM28.2383 32.4199C28.3713 32.0705 28.4357 31.6871 28.4357 31.2727H27.9357C27.9357 31.6349 27.8795 31.957 27.771 32.242L28.2383 32.4199ZM28.4357 31.2727C28.4357 30.8634 28.3725 30.4867 28.2415 30.1461L27.7748 30.3255C27.8805 30.6004 27.9357 30.915 27.9357 31.2727H28.4357ZM28.2423 30.1482C28.1117 29.799 27.9088 29.5133 27.6303 29.3017L27.3278 29.6998C27.5227 29.8479 27.6726 30.0523 27.774 30.3234L28.2423 30.1482ZM27.6325 29.3034C27.3461 29.0806 26.9943 28.9773 26.5948 28.9773V29.4773C26.9056 29.4773 27.1432 29.5562 27.3256 29.698L27.6325 29.3034ZM26.5948 28.9773C26.21 28.9773 25.8686 29.0756 25.5861 29.286L25.8848 29.687C26.0663 29.5518 26.2978 29.4773 26.5948 29.4773V28.9773ZM25.5874 29.285C25.3115 29.4877 25.1095 29.7683 24.9765 30.1141L25.4432 30.2936C25.547 30.0238 25.6954 29.8262 25.8835 29.688L25.5874 29.285ZM24.9768 30.1135C24.8449 30.4538 24.7823 30.8419 24.7823 31.2727H25.2823C25.2823 30.8892 25.3381 30.5647 25.443 30.2942L24.9768 30.1135ZM31.1403 26.7273H31.3903V26.4773H31.1403V26.7273ZM31.1403 34V34.25H31.3903V34H31.1403ZM30.3022 34H30.0522V34.25H30.3022V34ZM30.3022 26.7273V26.4773H30.0522V26.7273H30.3022ZM30.8903 26.7273V34H31.3903V26.7273H30.8903ZM31.1403 33.75H30.3022V34.25H31.1403V33.75ZM30.5522 34V26.7273H30.0522V34H30.5522ZM30.3022 26.9773H31.1403V26.4773H30.3022V26.9773ZM33.6021 33.7656L33.4705 33.9782L33.4721 33.9792L33.6021 33.7656ZM32.725 32.7855L32.4999 32.8943L32.5006 32.8958L32.725 32.7855ZM32.725 29.8381L32.4996 29.7298L32.4994 29.7303L32.725 29.8381ZM33.5843 28.8366L33.7208 29.0461L33.7212 29.0459L33.5843 28.8366ZM35.7186 28.6165L35.7994 28.3799L35.7186 28.6165ZM36.475 29.0781L36.304 29.2605L36.305 29.2615L36.475 29.0781ZM37.0183 29.9162L37.2514 29.8258V29.8258L37.0183 29.9162ZM37.2207 31.5568V31.8068H37.4707V31.5568H37.2207ZM33.0162 31.5568H32.7662V31.8068H33.0162V31.5568ZM33.0162 30.8324V30.5824H32.7662V30.8324H33.0162ZM36.3684 30.8324V31.0824H36.6184V30.8324H36.3684ZM36.1838 30.0085L35.9602 30.1203L35.961 30.1221L36.1838 30.0085ZM35.6653 29.4368L35.5324 29.6485L35.5334 29.6492L35.6653 29.4368ZM34.0105 29.4759L34.1506 29.6829L34.151 29.6826L34.0105 29.4759ZM33.4529 30.1151L33.2289 30.0041L33.4529 30.1151ZM33.4707 32.4908L33.2467 32.6018L33.2478 32.6041L33.4707 32.4908ZM34.0708 33.1406L33.9449 33.3566L33.9464 33.3574L34.0708 33.1406ZM35.5588 33.2685L35.6407 33.5047L35.6425 33.504L35.5588 33.2685ZM36.024 32.9844L36.1975 33.1644L36.1991 33.1628L36.024 32.9844ZM36.3258 32.5085L36.3934 32.2678L36.1723 32.2058L36.0917 32.4207L36.3258 32.5085ZM37.1355 32.7358L37.3742 32.8099L37.4504 32.5645L37.203 32.4951L37.1355 32.7358ZM36.7058 33.4602L36.8846 33.6349L36.8856 33.6339L36.7058 33.4602ZM35.9601 33.9432L36.0497 34.1766L36.0513 34.1759L35.9601 33.9432ZM34.9622 33.8636C34.4742 33.8636 34.0676 33.7563 33.7321 33.5521L33.4721 33.9792C33.8989 34.239 34.399 34.3636 34.9622 34.3636V33.8636ZM33.7336 33.553C33.3968 33.3446 33.1356 33.0543 32.9493 32.6752L32.5006 32.8958C32.7262 33.3548 33.0499 33.7179 33.4706 33.9782L33.7336 33.553ZM32.9501 32.6768C32.7657 32.2952 32.6696 31.8436 32.6696 31.3153H32.1696C32.1696 31.9045 32.277 32.433 32.4999 32.8943L32.9501 32.6768ZM32.6696 31.3153C32.6696 30.7872 32.7657 30.3327 32.9505 29.9458L32.4994 29.7303C32.277 30.1957 32.1696 30.7261 32.1696 31.3153H32.6696ZM32.9503 29.9464C33.1382 29.5554 33.3954 29.2581 33.7208 29.0461L33.4479 28.6272C33.0393 28.8934 32.7237 29.2637 32.4996 29.7298L32.9503 29.9464ZM33.7212 29.0459C34.0452 28.834 34.4273 28.7244 34.877 28.7244V28.2244C34.3418 28.2244 33.8621 28.3563 33.4475 28.6274L33.7212 29.0459ZM34.877 28.7244C35.1327 28.7244 35.3859 28.767 35.6377 28.853L35.7994 28.3799C35.4972 28.2766 35.1894 28.2244 34.877 28.2244V28.7244ZM35.6377 28.853C35.879 28.9355 36.1009 29.0701 36.304 29.2605L36.646 28.8957C36.3945 28.66 36.1121 28.4868 35.7994 28.3799L35.6377 28.853ZM36.305 29.2615C36.4993 29.4416 36.6612 29.6868 36.7852 30.0066L37.2514 29.8258C37.1055 29.4496 36.9051 29.136 36.6449 28.8948L36.305 29.2615ZM36.7852 30.0066C36.9057 30.3174 36.9707 30.7131 36.9707 31.2017H37.4707C37.4707 30.6723 37.4008 30.211 37.2514 29.8258L36.7852 30.0066ZM36.9707 31.2017V31.5568H37.4707V31.2017H36.9707ZM37.2207 31.3068H33.0162V31.8068H37.2207V31.3068ZM33.2662 31.5568V30.8324H32.7662V31.5568H33.2662ZM33.0162 31.0824H36.3684V30.5824H33.0162V31.0824ZM36.6184 30.8324C36.6184 30.4905 36.5498 30.1761 36.4065 29.895L35.961 30.1221C36.0639 30.3239 36.1184 30.5587 36.1184 30.8324H36.6184ZM36.4074 29.8967C36.2664 29.6147 36.0622 29.389 35.7972 29.2244L35.5334 29.6492C35.7182 29.7639 35.8597 29.9193 35.9602 30.1203L36.4074 29.8967ZM35.7982 29.225C35.53 29.0567 35.2196 28.9773 34.877 28.9773V29.4773C35.1403 29.4773 35.3555 29.5375 35.5324 29.6485L35.7982 29.225ZM34.877 28.9773C34.4999 28.9773 34.1606 29.0716 33.87 29.2691L34.151 29.6826C34.3481 29.5487 34.5864 29.4773 34.877 29.4773V28.9773ZM33.8704 29.2688C33.5929 29.4565 33.3782 29.7028 33.2289 30.0041L33.677 30.2261C33.7881 30.0018 33.9451 29.8219 34.1506 29.6829L33.8704 29.2688ZM33.2289 30.0041C33.0812 30.3022 33.0076 30.6221 33.0076 30.9602H33.5076C33.5076 30.6971 33.5643 30.4534 33.677 30.2261L33.2289 30.0041ZM33.0076 30.9602V31.4432H33.5076V30.9602H33.0076ZM33.0076 31.4432C33.0076 31.8829 33.0834 32.2724 33.2467 32.6018L33.6947 32.3797C33.574 32.1362 33.5076 31.8273 33.5076 31.4432H33.0076ZM33.2478 32.6041C33.4123 32.9275 33.6445 33.1814 33.9449 33.3566L34.1968 32.9247C33.9858 32.8016 33.818 32.6222 33.6936 32.3775L33.2478 32.6041ZM33.9464 33.3574C34.2453 33.529 34.5865 33.6108 34.9622 33.6108V33.1108C34.6607 33.1108 34.4078 33.0458 34.1953 32.9238L33.9464 33.3574ZM34.9622 33.6108C35.2055 33.6108 35.4327 33.5768 35.6407 33.5047L35.4769 33.0323C35.3297 33.0833 35.1592 33.1108 34.9622 33.1108V33.6108ZM35.6425 33.504C35.854 33.4289 36.0402 33.3159 36.1974 33.1644L35.8505 32.8044C35.7473 32.9038 35.6234 32.9802 35.4751 33.0329L35.6425 33.504ZM36.1991 33.1628C36.358 33.0067 36.4775 32.8161 36.5599 32.5963L36.0917 32.4207C36.0321 32.5797 35.9503 32.7063 35.8488 32.806L36.1991 33.1628ZM36.2583 32.7492L37.0679 32.9765L37.203 32.4951L36.3934 32.2678L36.2583 32.7492ZM36.8967 32.6617C36.8232 32.8987 36.7002 33.1061 36.526 33.2865L36.8856 33.6339C37.1138 33.3977 37.2773 33.1221 37.3742 32.8099L36.8967 32.6617ZM36.527 33.2855C36.353 33.4636 36.1352 33.606 35.8688 33.7104L36.0513 34.1759C36.3767 34.0484 36.6562 33.8688 36.8846 33.6349L36.527 33.2855ZM35.8704 33.7098C35.6074 33.8108 35.3058 33.8636 34.9622 33.8636V34.3636C35.3572 34.3636 35.7208 34.3028 36.0497 34.1766L35.8704 33.7098ZM47.274 29V29.25H47.5722L47.5201 28.9564L47.274 29ZM46.3933 29L46.1484 29.0503L46.1895 29.25H46.3933V29ZM46.1199 28.3324L45.9118 28.4711L45.913 28.4728L46.1199 28.3324ZM45.6511 27.8494L45.504 28.0516L45.507 28.0537L45.6511 27.8494ZM45.0439 27.5511L44.9725 27.7907L45.0439 27.5511ZM43.1511 27.7855L43.019 27.5733L43.0183 27.5737L43.1511 27.7855ZM42.3024 28.7692L42.0776 28.6598L42.0771 28.6608L42.3024 28.7692ZM42.3024 31.9581L42.0771 32.0664L42.0776 32.0674L42.3024 31.9581ZM43.1511 32.9418L43.0183 33.1536L43.019 33.154L43.1511 32.9418ZM45.0439 33.1761L44.9725 32.9365L45.0439 33.1761ZM45.6511 32.8814L45.7964 33.0848L45.7969 33.0845L45.6511 32.8814ZM46.1199 32.3949L45.9122 32.2556L45.9118 32.2562L46.1199 32.3949ZM46.3933 31.7273V31.4773H46.1898L46.1485 31.6765L46.3933 31.7273ZM47.274 31.7273L47.5201 31.7712L47.5725 31.4773H47.274V31.7273ZM46.9118 32.7251L46.6971 32.597L46.9118 32.7251ZM46.2583 33.4744L46.4123 33.6714L46.4134 33.6705L46.2583 33.4744ZM45.3812 33.9396L45.3032 33.7021L45.3027 33.7023L45.3812 33.9396ZM42.693 33.6449L42.5601 33.8567L42.693 33.6449ZM41.5531 32.3523L41.7771 32.2412L41.5531 32.3523ZM41.5531 28.375L41.3291 28.264L41.5531 28.375ZM45.3812 26.7876L45.3027 27.025L45.3032 27.0252L45.3812 26.7876ZM46.2583 27.2564L46.1033 27.4525L46.1044 27.4533L46.2583 27.2564ZM46.9118 28.0021L46.6971 28.1302L46.6975 28.131L46.9118 28.0021ZM47.274 28.75H46.3933V29.25H47.274V28.75ZM46.6382 28.9497C46.5802 28.6678 46.4774 28.4139 46.3267 28.1919L45.913 28.4728C46.0227 28.6344 46.1022 28.8255 46.1484 29.0503L46.6382 28.9497ZM46.3279 28.1937C46.1833 27.9768 46.0055 27.7934 45.7952 27.6451L45.507 28.0537C45.666 28.1658 45.8007 28.3044 45.9118 28.4711L46.3279 28.1937ZM45.7981 27.6472C45.5922 27.4975 45.3641 27.3857 45.1152 27.3115L44.9725 27.7907C45.1687 27.8492 45.3454 27.9362 45.5041 28.0516L45.7981 27.6472ZM45.1152 27.3115C44.8686 27.2381 44.6125 27.2017 44.3478 27.2017V27.7017C44.5661 27.7017 44.774 27.7316 44.9725 27.7907L45.1152 27.3115ZM44.3478 27.2017C43.863 27.2017 43.418 27.3249 43.019 27.5733L43.2832 27.9977C43.5992 27.801 43.952 27.7017 44.3478 27.7017V27.2017ZM43.0183 27.5737C42.6179 27.8246 42.3056 28.1909 42.0776 28.6598L42.5272 28.8785C42.7205 28.481 42.9741 28.1915 43.2839 27.9974L43.0183 27.5737ZM42.0771 28.6608C41.8483 29.1367 41.7399 29.7075 41.7399 30.3636H42.2399C42.2399 29.7603 42.3398 29.2682 42.5277 28.8775L42.0771 28.6608ZM41.7399 30.3636C41.7399 31.0197 41.8483 31.5906 42.0771 32.0664L42.5277 31.8498C42.3398 31.4591 42.2399 30.967 42.2399 30.3636H41.7399ZM42.0776 32.0674C42.3056 32.5364 42.6179 32.9027 43.0183 33.1536L43.2839 32.7299C42.9741 32.5358 42.7205 32.2463 42.5272 31.8488L42.0776 32.0674ZM43.019 33.154C43.418 33.4024 43.863 33.5256 44.3478 33.5256V33.0256C43.952 33.0256 43.5992 32.9262 43.2832 32.7295L43.019 33.154ZM44.3478 33.5256C44.6125 33.5256 44.8686 33.4892 45.1152 33.4157L44.9725 32.9365C44.774 32.9957 44.5661 33.0256 44.3478 33.0256V33.5256ZM45.1152 33.4157C45.3633 33.3419 45.5908 33.2317 45.7964 33.0848L45.5058 32.678C45.3468 32.7915 45.1695 32.8778 44.9725 32.9365L45.1152 33.4157ZM45.7969 33.0845C46.0063 32.9341 46.1836 32.75 46.3279 32.5336L45.9118 32.2562C45.8005 32.4233 45.6652 32.5635 45.5053 32.6783L45.7969 33.0845ZM46.3275 32.5341C46.4773 32.3107 46.5801 32.0576 46.6381 31.7781L46.1485 31.6765C46.1023 31.8989 46.0228 32.0908 45.9122 32.2556L46.3275 32.5341ZM46.3933 31.9773H47.274V31.4773H46.3933V31.9773ZM47.0279 31.6834C46.9663 32.0284 46.8552 32.332 46.6971 32.597L47.1264 32.8533C47.3186 32.5312 47.449 32.1695 47.5201 31.7712L47.0279 31.6834ZM46.6971 32.597C46.537 32.8653 46.3391 33.0918 46.1033 33.2783L46.4134 33.6705C46.6984 33.4451 46.9361 33.1721 47.1264 32.8533L46.6971 32.597ZM46.1044 33.2775C45.8675 33.4627 45.601 33.6043 45.3032 33.7021L45.4592 34.1771C45.8101 34.0619 46.1284 33.8934 46.4123 33.6714L46.1044 33.2775ZM45.3027 33.7023C45.008 33.7998 44.6903 33.8494 44.3478 33.8494V34.3494C44.7393 34.3494 45.1105 34.2926 45.4597 34.177L45.3027 33.7023ZM44.3478 33.8494C43.7703 33.8494 43.2655 33.709 42.8259 33.4331L42.5601 33.8567C43.0864 34.1869 43.6849 34.3494 44.3478 34.3494V33.8494ZM42.8259 33.4331C42.3856 33.1569 42.0356 32.7626 41.7771 32.2412L41.3291 32.4633C41.6246 33.0594 42.0345 33.5268 42.5601 33.8567L42.8259 33.4331ZM41.7771 32.2412C41.5207 31.7241 41.3876 31.1009 41.3876 30.3636H40.8876C40.8876 31.1605 41.0315 31.8631 41.3291 32.4633L41.7771 32.2412ZM41.3876 30.3636C41.3876 29.6264 41.5207 29.0032 41.7771 28.486L41.3291 28.264C41.0315 28.8642 40.8876 29.5668 40.8876 30.3636H41.3876ZM41.7771 28.486C42.0356 27.9647 42.3856 27.5704 42.8259 27.2942L42.5601 26.8706C42.0345 27.2004 41.6246 27.6679 41.3291 28.264L41.7771 28.486ZM42.8259 27.2942C43.2655 27.0183 43.7703 26.8778 44.3478 26.8778V26.3778C43.6849 26.3778 43.0864 26.5404 42.5601 26.8706L42.8259 27.2942ZM44.3478 26.8778C44.6903 26.8778 45.008 26.9275 45.3027 27.025L45.4597 26.5503C45.1105 26.4347 44.7393 26.3778 44.3478 26.3778V26.8778ZM45.3032 27.0252C45.6004 27.1228 45.8666 27.2653 46.1033 27.4525L46.4134 27.0603C46.1293 26.8356 45.8107 26.6656 45.4592 26.5501L45.3032 27.0252ZM46.1044 27.4533C46.3396 27.6373 46.5371 27.8623 46.6971 28.1302L47.1264 27.874C46.936 27.5549 46.6979 27.2827 46.4123 27.0594L46.1044 27.4533ZM46.6975 28.131C46.8552 28.3931 46.9662 28.6962 47.0278 29.0436L47.5201 28.9564C47.4491 28.5557 47.3187 28.1936 47.126 27.8733L46.6975 28.131ZM48.6971 34H48.4471V34.25H48.6971V34ZM48.6971 26.7273V26.4773H48.4471V26.7273H48.6971ZM52.5536 27.0185L52.4361 27.2391L52.4372 27.2397L52.5536 27.0185ZM53.3633 27.8104L53.1416 27.9259V27.9259L53.3633 27.8104ZM53.3633 30.0973L53.1423 29.9805L53.3633 30.0973ZM52.5572 30.8786L52.6719 31.1007L52.673 31.1001L52.5572 30.8786ZM49.18 31.1591H48.93V31.4091H49.18V31.1591ZM49.18 30.3636V30.1136H48.93V30.3636H49.18ZM52.0778 30.1932L51.9705 29.9674L51.9696 29.9678L52.0778 30.1932ZM52.5962 29.7102L52.3741 29.5954L52.3736 29.5964L52.5962 29.7102ZM52.0742 27.6896L51.9615 27.9128L51.9633 27.9137L52.0742 27.6896ZM49.5778 27.5085V27.2585H49.3278V27.5085H49.5778ZM49.5778 34V34.25H49.8278V34H49.5778ZM52.1204 30.733L52.3396 30.6128L52.2685 30.483H52.1204V30.733ZM53.9102 34V34.25H54.3322L54.1294 33.8799L53.9102 34ZM52.8874 34L52.6674 34.1186L52.7382 34.25H52.8874V34ZM51.1261 30.733V30.483H50.7073L50.906 30.8516L51.1261 30.733ZM48.9471 34V26.7273H48.4471V34H48.9471ZM48.6971 26.9773H51.1545V26.4773H48.6971V26.9773ZM51.1545 26.9773C51.6963 26.9773 52.1187 27.0701 52.4361 27.2391L52.6711 26.7978C52.2594 26.5785 51.749 26.4773 51.1545 26.4773V26.9773ZM52.4372 27.2397C52.7609 27.4099 52.992 27.6388 53.1416 27.9259L53.585 27.6948C53.3842 27.3096 53.0755 27.0105 52.67 26.7972L52.4372 27.2397ZM53.1416 27.9259C53.2959 28.222 53.3761 28.5638 53.3761 28.9574H53.8761C53.8761 28.494 53.7811 28.0711 53.585 27.6948L53.1416 27.9259ZM53.3761 28.9574C53.3761 29.351 53.2958 29.6899 53.1423 29.9805L53.5843 30.2141C53.7811 29.8418 53.8761 29.4207 53.8761 28.9574H53.3761ZM53.1423 29.9805C52.9929 30.2631 52.7629 30.4888 52.4413 30.657L52.673 31.1001C53.0758 30.8895 53.3833 30.5944 53.5843 30.2141L53.1423 29.9805ZM52.4425 30.6564C52.1266 30.8195 51.7066 30.9091 51.1687 30.9091V31.4091C51.7576 31.4091 52.2633 31.3117 52.6719 31.1007L52.4425 30.6564ZM51.1687 30.9091H49.18V31.4091H51.1687V30.9091ZM49.43 31.1591V30.3636H48.93V31.1591H49.43ZM49.18 30.6136H51.1403V30.1136H49.18V30.6136ZM51.1403 30.6136C51.5495 30.6136 51.9032 30.5543 52.186 30.4186L51.9696 29.9678C51.7788 30.0594 51.5075 30.1136 51.1403 30.1136V30.6136ZM52.1851 30.419C52.467 30.285 52.684 30.0877 52.8188 29.824L52.3736 29.5964C52.2954 29.7494 52.1667 29.8741 51.9705 29.9674L52.1851 30.419ZM52.8183 29.825C52.9493 29.5716 53.0096 29.2796 53.0096 28.9574H52.5096C52.5096 29.2176 52.461 29.4274 52.3741 29.5954L52.8183 29.825ZM53.0096 28.9574C53.0096 28.6349 52.9492 28.3408 52.8198 28.0821L52.3726 28.3057C52.4611 28.4826 52.5096 28.6975 52.5096 28.9574H53.0096ZM52.8198 28.0821C52.6842 27.8109 52.4681 27.6057 52.1851 27.4656L51.9633 27.9137C52.1586 28.0103 52.2904 28.1413 52.3726 28.3057L52.8198 28.0821ZM52.1869 27.4665C51.9004 27.3218 51.5413 27.2585 51.1261 27.2585V27.7585C51.4968 27.7585 51.7698 27.816 51.9615 27.9128L52.1869 27.4665ZM51.1261 27.2585H49.5778V27.7585H51.1261V27.2585ZM49.3278 27.5085V34H49.8278V27.5085H49.3278ZM49.5778 33.75H48.6971V34.25H49.5778V33.75ZM51.9011 30.8531L53.6909 34.1201L54.1294 33.8799L52.3396 30.6128L51.9011 30.8531ZM53.9102 33.75H52.8874V34.25H53.9102V33.75ZM53.1075 33.8814L51.3461 30.6143L50.906 30.8516L52.6674 34.1186L53.1075 33.8814ZM51.1261 30.983H52.1204V30.483H51.1261V30.983ZM55.0936 26.7273V26.4773H54.8436V26.7273H55.0936ZM56.1447 26.7273L56.3761 26.6326L56.3125 26.4773H56.1447V26.7273ZM58.6163 32.7642L58.3849 32.8589L58.4485 33.0142H58.6163V32.7642ZM58.7015 32.7642V33.0142H58.8693L58.9329 32.8589L58.7015 32.7642ZM61.1731 26.7273V26.4773H61.0053L60.9418 26.6326L61.1731 26.7273ZM62.2243 26.7273H62.4743V26.4773H62.2243V26.7273ZM62.2243 34V34.25H62.4743V34H62.2243ZM61.4004 34H61.1504V34.25H61.4004V34ZM61.4004 28.4744H61.6504V28.2244H61.4004V28.4744ZM61.3294 28.4744V28.2244H61.1619L61.0982 28.3793L61.3294 28.4744ZM59.0566 34V34.25H59.2241L59.2878 34.0951L59.0566 34ZM58.2612 34L58.03 34.0951L58.0937 34.25H58.2612V34ZM55.9885 28.4744L56.2197 28.3793L56.156 28.2244H55.9885V28.4744ZM55.9174 28.4744V28.2244H55.6674V28.4744H55.9174ZM55.9174 34V34.25H56.1674V34H55.9174ZM55.0936 34H54.8436V34.25H55.0936V34ZM55.0936 26.9773H56.1447V26.4773H55.0936V26.9773ZM55.9133 26.822L58.3849 32.8589L58.8477 32.6695L56.3761 26.6326L55.9133 26.822ZM58.6163 33.0142H58.7015V32.5142H58.6163V33.0142ZM58.9329 32.8589L61.4045 26.822L60.9418 26.6326L58.4702 32.6695L58.9329 32.8589ZM61.1731 26.9773H62.2243V26.4773H61.1731V26.9773ZM61.9743 26.7273V34H62.4743V26.7273H61.9743ZM62.2243 33.75H61.4004V34.25H62.2243V33.75ZM61.6504 34V28.4744H61.1504V34H61.6504ZM61.4004 28.2244H61.3294V28.7244H61.4004V28.2244ZM61.0982 28.3793L58.8254 33.9049L59.2878 34.0951L61.5606 28.5695L61.0982 28.3793ZM59.0566 33.75H58.2612V34.25H59.0566V33.75ZM58.4924 33.9049L56.2197 28.3793L55.7573 28.5695L58.03 34.0951L58.4924 33.9049ZM55.9885 28.2244H55.9174V28.7244H55.9885V28.2244ZM55.6674 28.4744V34H56.1674V28.4744H55.6674ZM55.9174 33.75H55.0936V34.25H55.9174V33.75ZM55.3436 34V26.7273H54.8436V34H55.3436Z" fill="black"/>
<path d="M34.2 14.7L33.3529 16.8824M27 15.4706C28.2984 14.1417 31.3801 12.8852 31.5 13C31.6199 13.1148 33.3529 9.82353 33.3529 9.82353H34.7647L31.9412 9.11765L34.7647 8.41176C35.5333 7.70047 36.4057 7.41761 38.2941 7V7.70588H39C37.9534 9.27706 37.4415 10.1862 36.8824 11.9412C36.6085 13.8711 36.6439 14.9525 36.8824 16.8824" stroke="white" stroke-width="0.6"/>
<path d="M39.7206 17.9094C39.8711 18.0978 40.1468 18.1293 40.3267 17.9688C41.314 17.0877 42.0691 15.9738 42.5214 14.7254C43.0235 13.34 43.1331 11.8428 42.8382 10.399C42.5433 8.95526 41.8553 7.62098 40.8502 6.54338C39.8451 5.46577 38.5619 4.68671 37.1421 4.29213C35.7224 3.89755 34.2212 3.90278 32.8042 4.30725C31.3872 4.71172 30.1094 5.4997 29.1119 6.58429C28.1143 7.66887 27.4357 9.00792 27.1509 10.4537C26.8942 11.7565 26.9663 13.1003 27.3574 14.3644C27.4287 14.5948 27.6811 14.7099 27.9072 14.6262C28.1333 14.5425 28.2474 14.2916 28.1776 14.0608C27.8415 12.9479 27.782 11.7674 28.0076 10.6225C28.2613 9.3345 28.8659 8.14161 29.7546 7.17541C30.6432 6.2092 31.7815 5.50723 33.0439 5.14691C34.3062 4.78659 35.6435 4.78193 36.9083 5.13344C38.1731 5.48495 39.3163 6.17898 40.2117 7.13896C41.1071 8.09895 41.7199 9.2876 41.9826 10.5738C42.2453 11.86 42.1477 13.1937 41.7005 14.428C41.3029 15.5251 40.6429 16.5056 39.7807 17.2855C39.6019 17.4472 39.5701 17.721 39.7206 17.9094Z" fill="white"/>
<path d="M36 8.5H36.5" stroke="white" stroke-width="0.5"/>
</svg>
