<svg width="96" height="24" viewBox="0 0 96 24" fill="none" xmlns="http://www.w3.org/2000/svg">
<path d="M24 12C24 18.6274 18.6274 24 12 24C5.37258 24 0 18.6274 0 12C0 5.37258 5.37258 0 12 0C18.6274 0 24 5.37258 24 12Z" fill="#E000A1"/>
<path d="M27.8807 21V13.7273H32.2699V14.5085H28.7614V16.9659H32.0426V17.7472H28.7614V20.2188H32.3267V21H27.8807ZM35.3487 21.1278C35.0031 21.1278 34.6894 21.0627 34.4077 20.9325C34.1259 20.8 33.9022 20.6094 33.7365 20.3608C33.5708 20.1098 33.4879 19.8068 33.4879 19.4517C33.4879 19.1392 33.5495 18.8859 33.6726 18.6918C33.7957 18.4953 33.9602 18.3414 34.1662 18.2301C34.3722 18.1188 34.5994 18.036 34.848 17.9815C35.099 17.9247 35.3511 17.8797 35.6044 17.8466C35.9358 17.804 36.2045 17.772 36.4105 17.7507C36.6188 17.727 36.7704 17.688 36.8651 17.6335C36.9621 17.5791 37.0107 17.4844 37.0107 17.3494V17.321C37.0107 16.9706 36.9148 16.6984 36.723 16.5043C36.5336 16.3101 36.246 16.2131 35.8601 16.2131C35.46 16.2131 35.1463 16.3007 34.919 16.4759C34.6918 16.651 34.532 16.8381 34.4396 17.0369L33.6442 16.7528C33.7862 16.4214 33.9756 16.1634 34.2124 15.9787C34.4515 15.7917 34.7119 15.6615 34.9936 15.5881C35.2777 15.5123 35.5571 15.4744 35.8317 15.4744C36.0069 15.4744 36.2081 15.4957 36.4354 15.5384C36.665 15.5786 36.8864 15.6626 37.0994 15.7905C37.3149 15.9183 37.4936 16.1113 37.6357 16.3693C37.7777 16.6274 37.8487 16.973 37.8487 17.4062V21H37.0107V20.2614H36.968C36.9112 20.3797 36.8165 20.5064 36.6839 20.6413C36.5514 20.7763 36.375 20.8911 36.1548 20.9858C35.9347 21.0805 35.666 21.1278 35.3487 21.1278ZM35.4766 20.375C35.808 20.375 36.0874 20.3099 36.3146 20.1797C36.5443 20.0495 36.7171 19.8814 36.8331 19.6754C36.9515 19.4695 37.0107 19.2528 37.0107 19.0256V18.2585C36.9751 18.3011 36.897 18.3402 36.7763 18.3757C36.6579 18.4089 36.5206 18.4384 36.3643 18.4645C36.2105 18.4882 36.0601 18.5095 35.9134 18.5284C35.7689 18.545 35.6518 18.5592 35.5618 18.571C35.344 18.5994 35.1404 18.6456 34.951 18.7095C34.764 18.7711 34.6125 18.8646 34.4964 18.9901C34.3828 19.1132 34.326 19.2812 34.326 19.4943C34.326 19.7855 34.4337 20.0057 34.6491 20.1548C34.867 20.3016 35.1428 20.375 35.4766 20.375ZM43.242 16.767L42.4892 16.9801C42.4418 16.8546 42.372 16.7327 42.2797 16.6143C42.1897 16.4936 42.0666 16.3942 41.9103 16.3161C41.7541 16.2379 41.554 16.1989 41.3102 16.1989C40.9764 16.1989 40.6982 16.2758 40.4757 16.4297C40.2555 16.5812 40.1454 16.7741 40.1454 17.0085C40.1454 17.2169 40.2212 17.3814 40.3727 17.5021C40.5242 17.6229 40.7609 17.7235 41.0829 17.804L41.8926 18.0028C42.3803 18.1212 42.7437 18.3023 42.9828 18.5462C43.2219 18.7876 43.3414 19.099 43.3414 19.4801C43.3414 19.7926 43.2515 20.072 43.0716 20.3182C42.894 20.5644 42.6454 20.7585 42.3258 20.9006C42.0062 21.0426 41.6345 21.1136 41.2108 21.1136C40.6544 21.1136 40.194 20.9929 39.8294 20.7514C39.4648 20.5099 39.234 20.1572 39.1369 19.6932L39.9324 19.4943C40.0081 19.7879 40.1513 20.008 40.362 20.1548C40.5751 20.3016 40.8533 20.375 41.1966 20.375C41.5872 20.375 41.8973 20.2921 42.127 20.1264C42.359 19.9583 42.475 19.7571 42.475 19.5227C42.475 19.3333 42.4087 19.1747 42.2761 19.0469C42.1435 18.9167 41.9399 18.8196 41.6653 18.7557L40.7562 18.5426C40.2567 18.4242 39.8897 18.2408 39.6554 17.9922C39.4234 17.7412 39.3074 17.4276 39.3074 17.0511C39.3074 16.7434 39.3938 16.4711 39.5666 16.2344C39.7418 15.9976 39.9797 15.8118 40.2804 15.6768C40.5834 15.5419 40.9267 15.4744 41.3102 15.4744C41.85 15.4744 42.2737 15.5928 42.5815 15.8295C42.8916 16.0663 43.1118 16.3788 43.242 16.767ZM45.1428 23.0455C45.0007 23.0455 44.8741 23.0336 44.7628 23.0099C44.6515 22.9886 44.5746 22.9673 44.532 22.946L44.745 22.2074C44.9486 22.2595 45.1286 22.2784 45.2848 22.2642C45.4411 22.25 45.5795 22.1802 45.7003 22.0547C45.8234 21.9316 45.9358 21.7315 46.0376 21.4545L46.1939 21.0284L44.1768 15.5455H45.0859L46.5916 19.892H46.6484L48.1541 15.5455H49.0632L46.7479 21.7955C46.6437 22.0772 46.5147 22.3104 46.3608 22.495C46.2069 22.6821 46.0282 22.8205 45.8246 22.9105C45.6233 23.0005 45.3961 23.0455 45.1428 23.0455ZM53.82 17.7188V21H52.9819V13.7273H53.82V16.3977H53.891C54.0188 16.116 54.2106 15.8923 54.4663 15.7266C54.7243 15.5585 55.0676 15.4744 55.4961 15.4744C55.8678 15.4744 56.1933 15.549 56.4727 15.6982C56.752 15.8449 56.9686 16.071 57.1225 16.3764C57.2788 16.6795 57.3569 17.0653 57.3569 17.5341V21H56.5188V17.5909C56.5188 17.1577 56.4064 16.8227 56.1815 16.5859C55.9589 16.3468 55.65 16.2273 55.2546 16.2273C54.98 16.2273 54.7338 16.2853 54.516 16.4013C54.3005 16.5173 54.1301 16.6866 54.0046 16.9091C53.8815 17.1316 53.82 17.4015 53.82 17.7188ZM60.4952 21.1278C60.1496 21.1278 59.8359 21.0627 59.5542 20.9325C59.2724 20.8 59.0487 20.6094 58.883 20.3608C58.7173 20.1098 58.6344 19.8068 58.6344 19.4517C58.6344 19.1392 58.696 18.8859 58.8191 18.6918C58.9422 18.4953 59.1067 18.3414 59.3127 18.2301C59.5186 18.1188 59.7459 18.036 59.9945 17.9815C60.2454 17.9247 60.4976 17.8797 60.7509 17.8466C61.0823 17.804 61.351 17.772 61.557 17.7507C61.7653 17.727 61.9168 17.688 62.0115 17.6335C62.1086 17.5791 62.1571 17.4844 62.1571 17.3494V17.321C62.1571 16.9706 62.0613 16.6984 61.8695 16.5043C61.6801 16.3101 61.3925 16.2131 61.0066 16.2131C60.6065 16.2131 60.2928 16.3007 60.0655 16.4759C59.8382 16.651 59.6784 16.8381 59.5861 17.0369L58.7907 16.7528C58.9327 16.4214 59.1221 16.1634 59.3588 15.9787C59.598 15.7917 59.8584 15.6615 60.1401 15.5881C60.4242 15.5123 60.7035 15.4744 60.9782 15.4744C61.1533 15.4744 61.3546 15.4957 61.5819 15.5384C61.8115 15.5786 62.0328 15.6626 62.2459 15.7905C62.4614 15.9183 62.6401 16.1113 62.7821 16.3693C62.9242 16.6274 62.9952 16.973 62.9952 17.4062V21H62.1571V20.2614H62.1145C62.0577 20.3797 61.963 20.5064 61.8304 20.6413C61.6979 20.7763 61.5215 20.8911 61.3013 20.9858C61.0811 21.0805 60.8124 21.1278 60.4952 21.1278ZM60.623 20.375C60.9545 20.375 61.2338 20.3099 61.4611 20.1797C61.6908 20.0495 61.8636 19.8814 61.9796 19.6754C62.098 19.4695 62.1571 19.2528 62.1571 19.0256V18.2585C62.1216 18.3011 62.0435 18.3402 61.9228 18.3757C61.8044 18.4089 61.6671 18.4384 61.5108 18.4645C61.3569 18.4882 61.2066 18.5095 61.0598 18.5284C60.9154 18.545 60.7982 18.5592 60.7083 18.571C60.4905 18.5994 60.2869 18.6456 60.0975 18.7095C59.9105 18.7711 59.7589 18.8646 59.6429 18.9901C59.5293 19.1132 59.4725 19.2812 59.4725 19.4943C59.4725 19.7855 59.5802 20.0057 59.7956 20.1548C60.0134 20.3016 60.2892 20.375 60.623 20.375ZM65.3629 17.7188V21H64.5249V15.5455H65.3345V16.3977H65.4055C65.5334 16.1207 65.7275 15.8982 65.9879 15.7301C66.2483 15.5597 66.5845 15.4744 66.9964 15.4744C67.3658 15.4744 67.6889 15.5502 67.9659 15.7017C68.2429 15.8509 68.4583 16.0781 68.6122 16.3835C68.7661 16.6866 68.843 17.0701 68.843 17.5341V21H68.005V17.5909C68.005 17.1624 67.8937 16.8286 67.6712 16.5895C67.4486 16.348 67.1432 16.2273 66.755 16.2273C66.4875 16.2273 66.2483 16.2853 66.0376 16.4013C65.8293 16.5173 65.6648 16.6866 65.544 16.9091C65.4233 17.1316 65.3629 17.4015 65.3629 17.7188ZM72.4341 21.1136C71.9796 21.1136 71.5783 20.9988 71.2303 20.7692C70.8823 20.5372 70.61 20.2105 70.4135 19.7891C70.217 19.3653 70.1188 18.8646 70.1188 18.2869C70.1188 17.714 70.217 17.2169 70.4135 16.7955C70.61 16.3741 70.8835 16.0485 71.2338 15.8189C71.5842 15.5893 71.9891 15.4744 72.4483 15.4744C72.8034 15.4744 73.084 15.5336 73.29 15.652C73.4983 15.768 73.6569 15.9006 73.7658 16.0497C73.8771 16.1965 73.9635 16.3172 74.025 16.4119H74.0961V13.7273H74.9341V21H74.1245V20.1619H74.025C73.9635 20.2614 73.8759 20.3868 73.7623 20.5384C73.6486 20.6875 73.4864 20.8213 73.2757 20.9396C73.065 21.0556 72.7845 21.1136 72.4341 21.1136ZM72.5478 20.3608C72.8839 20.3608 73.168 20.2732 73.4 20.098C73.632 19.9205 73.8084 19.6754 73.9292 19.3629C74.0499 19.0481 74.1103 18.6847 74.1103 18.2727C74.1103 17.8655 74.0511 17.5092 73.9327 17.2038C73.8143 16.8961 73.6391 16.657 73.4071 16.4865C73.1751 16.3137 72.8887 16.2273 72.5478 16.2273C72.1926 16.2273 71.8967 16.3184 71.66 16.5007C71.4256 16.6806 71.2492 16.9257 71.1309 17.2358C71.0149 17.5436 70.9569 17.8892 70.9569 18.2727C70.9569 18.661 71.016 19.0137 71.1344 19.331C71.2551 19.6458 71.4327 19.8968 71.6671 20.0838C71.9038 20.2685 72.1974 20.3608 72.5478 20.3608ZM77.4235 13.7273V21H76.5854V13.7273H77.4235ZM78.9585 21V15.5455H79.7965V21H78.9585ZM79.3846 14.6364C79.2212 14.6364 79.0804 14.5807 78.962 14.4695C78.846 14.3582 78.788 14.2244 78.788 14.0682C78.788 13.9119 78.846 13.7782 78.962 13.6669C79.0804 13.5556 79.2212 13.5 79.3846 13.5C79.5479 13.5 79.6876 13.5556 79.8036 13.6669C79.922 13.7782 79.9812 13.9119 79.9812 14.0682C79.9812 14.2244 79.922 14.3582 79.8036 14.4695C79.6876 14.5807 79.5479 14.6364 79.3846 14.6364ZM82.1696 17.7188V21H81.3315V15.5455H82.1412V16.3977H82.2122C82.34 16.1207 82.5342 15.8982 82.7946 15.7301C83.055 15.5597 83.3912 15.4744 83.8031 15.4744C84.1724 15.4744 84.4956 15.5502 84.7725 15.7017C85.0495 15.8509 85.265 16.0781 85.4189 16.3835C85.5727 16.6866 85.6497 17.0701 85.6497 17.5341V21H84.8116V17.5909C84.8116 17.1624 84.7003 16.8286 84.4778 16.5895C84.2553 16.348 83.9499 16.2273 83.5616 16.2273C83.2941 16.2273 83.055 16.2853 82.8443 16.4013C82.6359 16.5173 82.4714 16.6866 82.3507 16.9091C82.2299 17.1316 82.1696 17.4015 82.1696 17.7188ZM89.3828 23.1591C88.978 23.1591 88.63 23.107 88.3388 23.0028C88.0476 22.901 87.8049 22.7661 87.6108 22.598C87.419 22.4323 87.2663 22.2547 87.1527 22.0653L87.8203 21.5966C87.8961 21.696 87.992 21.8097 88.108 21.9375C88.224 22.0677 88.3826 22.1802 88.5838 22.2749C88.7874 22.3719 89.0537 22.4205 89.3828 22.4205C89.8232 22.4205 90.1866 22.3139 90.473 22.1009C90.7595 21.8878 90.9027 21.554 90.9027 21.0994V19.9915H90.8317C90.7701 20.0909 90.6825 20.214 90.5689 20.3608C90.4576 20.5052 90.2966 20.6342 90.0859 20.7479C89.8776 20.8591 89.5959 20.9148 89.2408 20.9148C88.8004 20.9148 88.4051 20.8106 88.0547 20.6023C87.7067 20.3939 87.4309 20.0909 87.2273 19.6932C87.026 19.2955 86.9254 18.8125 86.9254 18.2443C86.9254 17.6856 87.0237 17.1991 87.2202 16.7848C87.4167 16.3681 87.6901 16.0462 88.0405 15.8189C88.3909 15.5893 88.7957 15.4744 89.255 15.4744C89.6101 15.4744 89.8918 15.5336 90.1001 15.652C90.3108 15.768 90.4718 15.9006 90.5831 16.0497C90.6967 16.1965 90.7843 16.3172 90.8459 16.4119H90.9311V15.5455H91.7408V21.1562C91.7408 21.625 91.6342 22.0062 91.4212 22.2997C91.2105 22.5956 90.9264 22.8123 90.5689 22.9496C90.2138 23.0893 89.8184 23.1591 89.3828 23.1591ZM89.3544 20.1619C89.6906 20.1619 89.9747 20.085 90.2067 19.9311C90.4387 19.7772 90.6151 19.5559 90.7358 19.267C90.8565 18.9782 90.9169 18.6326 90.9169 18.2301C90.9169 17.8371 90.8577 17.4903 90.7393 17.1896C90.621 16.889 90.4458 16.6534 90.2138 16.483C89.9818 16.3125 89.6953 16.2273 89.3544 16.2273C88.9993 16.2273 88.7034 16.3172 88.4666 16.4972C88.2322 16.6771 88.0559 16.9186 87.9375 17.2216C87.8215 17.5246 87.7635 17.8608 87.7635 18.2301C87.7635 18.6089 87.8227 18.9439 87.9411 19.2351C88.0618 19.5239 88.2393 19.7512 88.4737 19.9169C88.7105 20.0803 89.004 20.1619 89.3544 20.1619ZM93.8857 21.0568C93.7105 21.0568 93.5601 20.9941 93.4347 20.8686C93.3092 20.7431 93.2464 20.5928 93.2464 20.4176C93.2464 20.2424 93.3092 20.0921 93.4347 19.9666C93.5601 19.8411 93.7105 19.7784 93.8857 19.7784C94.0608 19.7784 94.2112 19.8411 94.3366 19.9666C94.4621 20.0921 94.5249 20.2424 94.5249 20.4176C94.5249 20.5336 94.4953 20.6402 94.4361 20.7372C94.3793 20.8343 94.3023 20.9124 94.2053 20.9716C94.1106 21.0284 94.004 21.0568 93.8857 21.0568Z" fill="black"/>
<path d="M37.858 4.54545C37.8153 4.18561 37.6425 3.90625 37.3395 3.70739C37.0365 3.50852 36.6648 3.40909 36.2244 3.40909C35.9025 3.40909 35.6207 3.46117 35.3793 3.56534C35.1402 3.66951 34.9531 3.81274 34.8182 3.99503C34.6856 4.17732 34.6193 4.38447 34.6193 4.61648C34.6193 4.81061 34.6655 4.97751 34.7578 5.11719C34.8525 5.2545 34.9732 5.36932 35.12 5.46165C35.2668 5.55161 35.4207 5.62618 35.5817 5.68537C35.7427 5.74219 35.8906 5.78835 36.0256 5.82386L36.7642 6.02273C36.9536 6.07244 37.1643 6.1411 37.3963 6.22869C37.6307 6.31629 37.8544 6.43584 38.0675 6.58736C38.2829 6.73651 38.4605 6.92827 38.6001 7.16264C38.7398 7.39702 38.8097 7.68466 38.8097 8.02557C38.8097 8.41856 38.7067 8.77367 38.5007 9.09091C38.2971 9.40814 37.9988 9.66027 37.6058 9.8473C37.2152 10.0343 36.7405 10.1278 36.1818 10.1278C35.661 10.1278 35.21 10.0438 34.8288 9.87571C34.45 9.70762 34.1518 9.47325 33.9339 9.17259C33.7185 8.87192 33.5966 8.52273 33.5682 8.125H34.4773C34.5009 8.39962 34.5933 8.62689 34.7543 8.80682C34.9176 8.98437 35.1236 9.11695 35.3722 9.20455C35.6231 9.28977 35.893 9.33239 36.1818 9.33239C36.518 9.33239 36.8198 9.27794 37.0874 9.16903C37.3549 9.05777 37.5668 8.90388 37.723 8.70739C37.8793 8.50852 37.9574 8.27652 37.9574 8.01136C37.9574 7.76989 37.8899 7.57339 37.755 7.42188C37.62 7.27036 37.4425 7.14725 37.2223 7.05256C37.0021 6.95786 36.7642 6.875 36.5085 6.80398L35.6136 6.5483C35.0455 6.38494 34.5956 6.15175 34.2642 5.84872C33.9328 5.54569 33.767 5.14915 33.767 4.65909C33.767 4.25189 33.8771 3.89678 34.0973 3.59375C34.3198 3.28835 34.6181 3.05161 34.9922 2.88352C35.3686 2.71307 35.7888 2.62784 36.2528 2.62784C36.7216 2.62784 37.1383 2.71188 37.5028 2.87997C37.8674 3.04569 38.1563 3.27296 38.3693 3.56179C38.5848 3.85062 38.6984 4.1785 38.7102 4.54545H37.858ZM40.144 10V4.54545H40.9821V10H40.144ZM40.5701 3.63636C40.4068 3.63636 40.2659 3.58073 40.1475 3.46946C40.0315 3.35819 39.9735 3.22443 39.9735 3.06818C39.9735 2.91193 40.0315 2.77817 40.1475 2.6669C40.2659 2.55563 40.4068 2.5 40.5701 2.5C40.7335 2.5 40.8732 2.55563 40.9892 2.6669C41.1075 2.77817 41.1667 2.91193 41.1667 3.06818C41.1667 3.22443 41.1075 3.35819 40.9892 3.46946C40.8732 3.58073 40.7335 3.63636 40.5701 3.63636ZM42.517 10V4.54545H43.3267V5.39773H43.3977C43.5114 5.10653 43.6948 4.88045 43.9482 4.71946C44.2015 4.55611 44.5057 4.47443 44.8608 4.47443C45.2206 4.47443 45.5201 4.55611 45.7592 4.71946C46.0007 4.88045 46.1889 5.10653 46.3239 5.39773H46.3807C46.5204 5.116 46.7299 4.89228 47.0092 4.72656C47.2886 4.55848 47.6236 4.47443 48.0142 4.47443C48.5019 4.47443 48.9008 4.62713 49.2109 4.93253C49.5211 5.23556 49.6761 5.70786 49.6761 6.34943V10H48.8381V6.34943C48.8381 5.94697 48.728 5.65933 48.5078 5.48651C48.2876 5.31368 48.0284 5.22727 47.7301 5.22727C47.3466 5.22727 47.0495 5.34328 46.8388 5.57528C46.6281 5.80492 46.5227 6.09612 46.5227 6.44886V10H45.6705V6.2642C45.6705 5.95407 45.5698 5.70431 45.3686 5.51491C45.1674 5.32315 44.9081 5.22727 44.5909 5.22727C44.3731 5.22727 44.1695 5.28527 43.9801 5.40128C43.7931 5.51728 43.6416 5.67827 43.5256 5.88423C43.4119 6.08783 43.3551 6.32339 43.3551 6.59091V10H42.517ZM51.2085 12.0455V4.54545H52.0181V5.41193H52.1175C52.1791 5.31723 52.2643 5.1965 52.3732 5.04972C52.4845 4.90057 52.6431 4.76799 52.8491 4.65199C53.0574 4.53362 53.3391 4.47443 53.6942 4.47443C54.1535 4.47443 54.5584 4.58925 54.9087 4.81889C55.2591 5.04853 55.5326 5.37405 55.729 5.79545C55.9255 6.21686 56.0238 6.71402 56.0238 7.28693C56.0238 7.86458 55.9255 8.36529 55.729 8.78906C55.5326 9.21046 55.2603 9.53717 54.9123 9.76918C54.5643 9.99882 54.163 10.1136 53.7085 10.1136C53.3581 10.1136 53.0775 10.0556 52.8668 9.93963C52.6561 9.82126 52.494 9.6875 52.3803 9.53835C52.2667 9.38684 52.1791 9.26136 52.1175 9.16193H52.0465V12.0455H51.2085ZM52.0323 7.27273C52.0323 7.68466 52.0927 8.04806 52.2134 8.36293C52.3342 8.67543 52.5105 8.92045 52.7425 9.09801C52.9746 9.2732 53.2586 9.3608 53.5948 9.3608C53.9452 9.3608 54.2376 9.26847 54.4719 9.08381C54.7087 8.89678 54.8862 8.64583 55.0046 8.33097C55.1254 8.01373 55.1857 7.66098 55.1857 7.27273C55.1857 6.8892 55.1265 6.54356 55.0082 6.2358C54.8922 5.92566 54.7158 5.68063 54.479 5.50071C54.2447 5.31842 53.9499 5.22727 53.5948 5.22727C53.2539 5.22727 52.9674 5.31368 52.7354 5.48651C52.5034 5.65696 52.3282 5.89607 52.2099 6.20384C52.0915 6.50923 52.0323 6.86553 52.0323 7.27273ZM58.1403 2.72727V10H57.3022V2.72727H58.1403ZM61.9622 10.1136C61.4366 10.1136 60.9833 9.99763 60.6021 9.76562C60.2233 9.53125 59.9309 9.20455 59.725 8.78551C59.5214 8.36411 59.4196 7.87405 59.4196 7.31534C59.4196 6.75663 59.5214 6.2642 59.725 5.83807C59.9309 5.40956 60.2174 5.07576 60.5843 4.83665C60.9537 4.59517 61.3845 4.47443 61.877 4.47443C62.161 4.47443 62.4416 4.52178 62.7186 4.61648C62.9956 4.71117 63.2477 4.86506 63.475 5.07812C63.7022 5.28883 63.8833 5.56818 64.0183 5.91619C64.1532 6.2642 64.2207 6.69271 64.2207 7.2017V7.55682H60.0162V6.83239H63.3684C63.3684 6.52462 63.3069 6.25 63.1838 6.00852C63.063 5.76705 62.8902 5.57647 62.6653 5.43679C62.4428 5.29711 62.18 5.22727 61.877 5.22727C61.5431 5.22727 61.2543 5.31013 61.0105 5.47585C60.769 5.6392 60.5832 5.85227 60.4529 6.11506C60.3227 6.37784 60.2576 6.65956 60.2576 6.96023V7.44318C60.2576 7.85511 60.3287 8.20431 60.4707 8.49077C60.6151 8.77486 60.8152 8.99148 61.0708 9.14062C61.3265 9.28741 61.6236 9.3608 61.9622 9.3608C62.1824 9.3608 62.3812 9.33002 62.5588 9.26847C62.7387 9.20455 62.8938 9.10985 63.024 8.98438C63.1542 8.85653 63.2548 8.69792 63.3258 8.50852L64.1355 8.7358C64.0502 9.01042 63.907 9.25189 63.7058 9.46023C63.5046 9.66619 63.256 9.82718 62.96 9.94318C62.6641 10.0568 62.3315 10.1136 61.9622 10.1136ZM74.274 5H73.3933C73.3412 4.74669 73.2501 4.52415 73.1199 4.33239C72.992 4.14062 72.8358 3.97964 72.6511 3.84943C72.4688 3.71686 72.2664 3.61742 72.0439 3.55114C71.8213 3.48485 71.5893 3.4517 71.3478 3.4517C70.9075 3.4517 70.5086 3.56297 70.1511 3.78551C69.796 4.00805 69.5131 4.33594 69.3024 4.76918C69.094 5.20241 68.9899 5.7339 68.9899 6.36364C68.9899 6.99337 69.094 7.52486 69.3024 7.9581C69.5131 8.39134 69.796 8.71922 70.1511 8.94176C70.5086 9.1643 70.9075 9.27557 71.3478 9.27557C71.5893 9.27557 71.8213 9.24242 72.0439 9.17614C72.2664 9.10985 72.4688 9.0116 72.6511 8.88139C72.8358 8.74882 72.992 8.58665 73.1199 8.39489C73.2501 8.20076 73.3412 7.97822 73.3933 7.72727H74.274C74.2077 8.09896 74.0869 8.43158 73.9118 8.72514C73.7366 9.0187 73.5188 9.26847 73.2583 9.47443C72.9979 9.67803 72.7056 9.8331 72.3812 9.93963C72.0592 10.0462 71.7148 10.0994 71.3478 10.0994C70.7276 10.0994 70.176 9.94792 69.693 9.64489C69.21 9.34186 68.8301 8.91098 68.5531 8.35227C68.2761 7.79356 68.1376 7.13068 68.1376 6.36364C68.1376 5.59659 68.2761 4.93371 68.5531 4.375C68.8301 3.81629 69.21 3.38542 69.693 3.08239C70.176 2.77936 70.7276 2.62784 71.3478 2.62784C71.7148 2.62784 72.0592 2.68111 72.3812 2.78764C72.7056 2.89418 72.9979 3.05043 73.2583 3.25639C73.5188 3.45999 73.7366 3.70857 73.9118 4.00213C74.0869 4.29332 74.2077 4.62595 74.274 5ZM75.6971 10V2.72727H78.1545C78.7227 2.72727 79.189 2.82434 79.5536 3.01847C79.9182 3.21023 80.1881 3.47419 80.3633 3.81037C80.5385 4.14654 80.6261 4.52888 80.6261 4.95739C80.6261 5.38589 80.5385 5.76586 80.3633 6.0973C80.1881 6.42874 79.9194 6.68916 79.5572 6.87855C79.195 7.06558 78.7321 7.15909 78.1687 7.15909H76.18V6.36364H78.1403C78.5285 6.36364 78.841 6.30682 79.0778 6.19318C79.3169 6.07955 79.4897 5.91856 79.5962 5.71023C79.7051 5.49953 79.7596 5.24858 79.7596 4.95739C79.7596 4.66619 79.7051 4.41169 79.5962 4.19389C79.4873 3.97609 79.3133 3.808 79.0742 3.68963C78.8351 3.56889 78.5191 3.50852 78.1261 3.50852H76.5778V10H75.6971ZM79.1204 6.73295L80.9102 10H79.8874L78.1261 6.73295H79.1204ZM82.0936 2.72727H83.1447L85.6163 8.7642H85.7015L88.1731 2.72727H89.2243V10H88.4004V4.47443H88.3294L86.0566 10H85.2612L82.9885 4.47443H82.9174V10H82.0936V2.72727Z" fill="black"/>
<path d="M37.858 4.54545L37.6097 4.57485L37.6358 4.79545H37.858V4.54545ZM37.3395 3.70739L37.2023 3.9164L37.3395 3.70739ZM35.3793 3.56534L35.2802 3.33579L35.2794 3.33615L35.3793 3.56534ZM34.8182 3.99503L34.6172 3.84628L34.616 3.84799L34.8182 3.99503ZM34.7578 5.11719L34.5492 5.25507L34.552 5.25912L34.7578 5.11719ZM35.12 5.46165L34.9869 5.67328L34.9894 5.6748L35.12 5.46165ZM35.5817 5.68537L35.4954 5.92003L35.4985 5.92112L35.5817 5.68537ZM36.0256 5.82386L36.0906 5.58246L36.0892 5.58209L36.0256 5.82386ZM36.7642 6.02273L36.6992 6.26414L36.7007 6.26453L36.7642 6.02273ZM37.3963 6.22869L37.308 6.46258L37.3088 6.46287L37.3963 6.22869ZM38.0675 6.58736L37.9226 6.79111L37.9252 6.79291L38.0675 6.58736ZM38.6001 7.16264L38.8149 7.03466L38.6001 7.16264ZM38.5007 9.09091L38.291 8.95477L38.2903 8.95588L38.5007 9.09091ZM37.6058 9.8473L37.4984 9.62156L37.4979 9.62181L37.6058 9.8473ZM34.8288 9.87571L34.7274 10.1042L34.728 10.1045L34.8288 9.87571ZM33.9339 9.17259L33.7307 9.3182L33.7315 9.31925L33.9339 9.17259ZM33.5682 8.125V7.875H33.2997L33.3188 8.14281L33.5682 8.125ZM34.4773 8.125L34.7263 8.10353L34.7066 7.875H34.4773V8.125ZM34.7543 8.80682L34.5679 8.97353L34.5703 8.97608L34.7543 8.80682ZM35.3722 9.20455L35.2891 9.44035L35.2918 9.44127L35.3722 9.20455ZM37.0874 9.16903L37.1816 9.40059L37.1834 9.39986L37.0874 9.16903ZM37.723 8.70739L37.9187 8.86299L37.9196 8.86184L37.723 8.70739ZM37.755 7.42188L37.9417 7.2556L37.755 7.42188ZM37.2223 7.05256L37.1235 7.28222H37.1235L37.2223 7.05256ZM36.5085 6.80398L36.4398 7.04436L36.4416 7.04486L36.5085 6.80398ZM35.6136 6.5483L35.5446 6.78856L35.545 6.78868L35.6136 6.5483ZM34.2642 5.84872L34.0955 6.03323H34.0955L34.2642 5.84872ZM34.0973 3.59375L33.8953 3.44652L33.895 3.4468L34.0973 3.59375ZM34.9922 2.88352L35.0947 3.11156L35.0953 3.11126L34.9922 2.88352ZM37.5028 2.87997L37.3982 3.10701L37.3994 3.10756L37.5028 2.87997ZM38.3693 3.56179L38.1681 3.7102L38.1689 3.71126L38.3693 3.56179ZM38.7102 4.54545V4.79545H38.9684L38.9601 4.53739L38.7102 4.54545ZM38.1062 4.51605C38.0549 4.08284 37.8414 3.73775 37.4767 3.49837L37.2023 3.9164C37.4436 4.07475 37.5758 4.28837 37.6097 4.57485L38.1062 4.51605ZM37.4767 3.49837C37.1249 3.26751 36.7029 3.15909 36.2244 3.15909V3.65909C36.6266 3.65909 36.9481 3.74954 37.2023 3.9164L37.4767 3.49837ZM36.2244 3.15909C35.8758 3.15909 35.5592 3.21547 35.2802 3.33579L35.4783 3.79489C35.6823 3.70688 35.9291 3.65909 36.2244 3.65909V3.15909ZM35.2794 3.33615C35.0062 3.45515 34.782 3.62379 34.6172 3.84628L35.0191 4.14377C35.1243 4.00168 35.2741 3.88387 35.4791 3.79454L35.2794 3.33615ZM34.616 3.84799C34.4514 4.07433 34.3693 4.33329 34.3693 4.61648H34.8693C34.8693 4.43565 34.9198 4.28031 35.0204 4.14207L34.616 3.84799ZM34.3693 4.61648C34.3693 4.85162 34.4258 5.06827 34.5493 5.25505L34.9664 4.97933C34.9052 4.88675 34.8693 4.76959 34.8693 4.61648H34.3693ZM34.552 5.25912C34.6667 5.42546 34.8126 5.56361 34.9869 5.67326L35.2531 5.25003C35.1339 5.17503 35.0383 5.08354 34.9636 4.97525L34.552 5.25912ZM34.9894 5.6748C35.1502 5.77334 35.3189 5.85512 35.4954 5.92001L35.6679 5.45072C35.5225 5.39724 35.3835 5.32988 35.2507 5.2485L34.9894 5.6748ZM35.4985 5.92112C35.6645 5.97973 35.8191 6.02805 35.9619 6.06563L36.0892 5.58209C35.9621 5.54865 35.8208 5.50465 35.6649 5.44962L35.4985 5.92112ZM35.9606 6.06527L36.6992 6.26413L36.8292 5.78132L36.0906 5.58246L35.9606 6.06527ZM36.7007 6.26453C36.8799 6.31155 37.0821 6.37729 37.308 6.46258L37.4846 5.99481C37.2465 5.90491 37.0273 5.83333 36.8277 5.78092L36.7007 6.26453ZM37.3088 6.46287C37.5219 6.54252 37.7264 6.65161 37.9226 6.7911L38.2124 6.38362C37.9824 6.22007 37.7395 6.09005 37.4838 5.99451L37.3088 6.46287ZM37.9252 6.79291C38.11 6.92084 38.2633 7.08569 38.3854 7.29063L38.8149 7.03466C38.6577 6.77084 38.4559 6.55217 38.2098 6.38181L37.9252 6.79291ZM38.3854 7.29063C38.4969 7.47773 38.5597 7.71858 38.5597 8.02557H39.0597C39.0597 7.65074 38.9827 7.3163 38.8149 7.03466L38.3854 7.29063ZM38.5597 8.02557C38.5597 8.37223 38.4696 8.6797 38.291 8.95477L38.7104 9.22705C38.9437 8.86765 39.0597 8.46489 39.0597 8.02557H38.5597ZM38.2903 8.95588C38.1156 9.22811 37.8559 9.45142 37.4984 9.62156L37.7133 10.073C38.1417 9.86913 38.4786 9.58818 38.7111 9.22594L38.2903 8.95588ZM37.4979 9.62181C37.1492 9.78873 36.7136 9.87784 36.1818 9.87784V10.3778C36.7674 10.3778 37.2812 10.2799 37.7138 10.0728L37.4979 9.62181ZM36.1818 9.87784C35.6873 9.87784 35.2722 9.79799 34.9297 9.64697L34.728 10.1045C35.1478 10.2896 35.6347 10.3778 36.1818 10.3778V9.87784ZM34.9302 9.6472C34.587 9.49487 34.3254 9.28684 34.1364 9.02592L33.7315 9.31925C33.9781 9.65965 34.3131 9.92037 34.7274 10.1042L34.9302 9.6472ZM34.1372 9.02697C33.9507 8.76676 33.8429 8.4626 33.8175 8.10719L33.3188 8.14281C33.3502 8.58285 33.4863 8.97708 33.7307 9.3182L34.1372 9.02697ZM33.5682 8.375H34.4773V7.875H33.5682V8.375ZM34.2282 8.14647C34.2558 8.46704 34.3659 8.74767 34.568 8.97352L34.9406 8.64012C34.8207 8.50612 34.7461 8.3322 34.7263 8.10353L34.2282 8.14647ZM34.5703 8.97608C34.7638 9.18645 35.0056 9.34043 35.2891 9.44033L35.4552 8.96876C35.2416 8.89347 35.0714 8.7823 34.9382 8.63755L34.5703 8.97608ZM35.2918 9.44127C35.5708 9.53604 35.8681 9.58239 36.1818 9.58239V9.08239C35.9179 9.08239 35.6754 9.0435 35.4526 8.96782L35.2918 9.44127ZM36.1818 9.58239C36.5451 9.58239 36.8797 9.5235 37.1816 9.40058L36.9931 8.93748C36.76 9.03237 36.4909 9.08239 36.1818 9.08239V9.58239ZM37.1834 9.39986C37.4839 9.27488 37.7323 9.09738 37.9187 8.86298L37.5273 8.55179C37.4012 8.71039 37.2259 8.84065 36.9913 8.9382L37.1834 9.39986ZM37.9196 8.86184C38.1122 8.61669 38.2074 8.32961 38.2074 8.01136H37.7074C37.7074 8.22342 37.6463 8.40035 37.5264 8.55293L37.9196 8.86184ZM38.2074 8.01136C38.2074 7.72087 38.1249 7.46132 37.9417 7.2556L37.5683 7.58815C37.6549 7.68546 37.7074 7.8189 37.7074 8.01136H38.2074ZM37.9417 7.2556C37.7784 7.07228 37.5688 6.92945 37.3211 6.8229L37.1235 7.28222C37.3161 7.36506 37.4617 7.46844 37.5683 7.58815L37.9417 7.2556ZM37.3211 6.8229C37.0895 6.7233 36.8408 6.63682 36.5754 6.5631L36.4416 7.04486C36.6876 7.11318 36.9147 7.19242 37.1235 7.28222L37.3211 6.8229ZM36.5772 6.5636L35.6823 6.30791L35.545 6.78868L36.4398 7.04436L36.5772 6.5636ZM35.6827 6.30803C35.1403 6.15209 34.7283 5.93433 34.4329 5.66421L34.0955 6.03323C34.463 6.36917 34.9506 6.61779 35.5446 6.78856L35.6827 6.30803ZM34.4329 5.66421C34.1583 5.41317 34.017 5.08611 34.017 4.65909H33.517C33.517 5.21218 33.7072 5.67822 34.0955 6.03323L34.4329 5.66421ZM34.017 4.65909C34.017 4.29984 34.1132 3.99725 34.2996 3.7407L33.895 3.4468C33.6411 3.79631 33.517 4.20395 33.517 4.65909H34.017ZM34.2993 3.74098C34.4941 3.47368 34.7568 3.26339 35.0947 3.11156L34.8897 2.65549C34.4795 2.83983 34.1456 3.10303 33.8953 3.44652L34.2993 3.74098ZM35.0953 3.11126C35.4356 2.95719 35.82 2.87784 36.2528 2.87784V2.37784C35.7576 2.37784 35.3017 2.46895 34.8891 2.65578L35.0953 3.11126ZM36.2528 2.87784C36.6915 2.87784 37.0715 2.95638 37.3982 3.107L37.6075 2.65294C37.2051 2.46739 36.7517 2.37784 36.2528 2.37784V2.87784ZM37.3994 3.10756C37.7298 3.25773 37.9832 3.4595 38.1681 3.7102L38.5705 3.41338C38.3293 3.08643 38.0051 2.83365 37.6063 2.65238L37.3994 3.10756ZM38.1689 3.71126C38.3532 3.9583 38.4501 4.23662 38.4604 4.55351L38.9601 4.53739C38.9466 4.12039 38.8163 3.74293 38.5697 3.41232L38.1689 3.71126ZM38.7102 4.29545H37.858V4.79545H38.7102V4.29545ZM40.144 10H39.894V10.25H40.144V10ZM40.144 4.54545V4.29545H39.894V4.54545H40.144ZM40.9821 4.54545H41.2321V4.29545H40.9821V4.54545ZM40.9821 10V10.25H41.2321V10H40.9821ZM40.1475 3.46946L39.9745 3.64989L39.9763 3.65162L40.1475 3.46946ZM40.1475 2.6669L39.9763 2.48474L39.9745 2.48648L40.1475 2.6669ZM40.9892 2.6669L40.8161 2.84733L40.8179 2.84906L40.9892 2.6669ZM40.9892 3.46946L40.8179 3.28729L40.8161 3.28904L40.9892 3.46946ZM40.394 10V4.54545H39.894V10H40.394ZM40.144 4.79545H40.9821V4.29545H40.144V4.79545ZM40.7321 4.54545V10H41.2321V4.54545H40.7321ZM40.9821 9.75H40.144V10.25H40.9821V9.75ZM40.5701 3.38636C40.47 3.38636 40.3905 3.35472 40.3188 3.2873L39.9763 3.65162C40.1413 3.80673 40.3435 3.88636 40.5701 3.88636V3.38636ZM40.3206 3.28904C40.2522 3.22339 40.2235 3.15415 40.2235 3.06818H39.7235C39.7235 3.29472 39.8109 3.49299 39.9745 3.64988L40.3206 3.28904ZM40.2235 3.06818C40.2235 2.98222 40.2522 2.91297 40.3206 2.84732L39.9745 2.48648C39.8109 2.64337 39.7235 2.84165 39.7235 3.06818H40.2235ZM40.3188 2.84906C40.3905 2.78164 40.47 2.75 40.5701 2.75V2.25C40.3435 2.25 40.1413 2.32963 39.9763 2.48475L40.3188 2.84906ZM40.5701 2.75C40.6702 2.75 40.7475 2.78151 40.8161 2.84732L41.1622 2.48648C40.9988 2.32976 40.7968 2.25 40.5701 2.25V2.75ZM40.8179 2.84906C40.8883 2.91519 40.9167 2.98395 40.9167 3.06818H41.4167C41.4167 2.83992 41.3268 2.64115 41.1604 2.48475L40.8179 2.84906ZM40.9167 3.06818C40.9167 3.15242 40.8883 3.22117 40.8179 3.2873L41.1604 3.65162C41.3268 3.49521 41.4167 3.29645 41.4167 3.06818H40.9167ZM40.8161 3.28904C40.7475 3.35486 40.6702 3.38636 40.5701 3.38636V3.88636C40.7968 3.88636 40.9988 3.8066 41.1622 3.64988L40.8161 3.28904ZM42.517 10H42.267V10.25H42.517V10ZM42.517 4.54545V4.29545H42.267V4.54545H42.517ZM43.3267 4.54545H43.5767V4.29545H43.3267V4.54545ZM43.3267 5.39773H43.0767V5.64773H43.3267V5.39773ZM43.3977 5.39773V5.64773H43.5685L43.6306 5.48861L43.3977 5.39773ZM43.9482 4.71946L44.0822 4.93046L44.0836 4.92956L43.9482 4.71946ZM45.7592 4.71946L45.6182 4.9259L45.6206 4.92747L45.7592 4.71946ZM46.3239 5.39773L46.097 5.50284L46.1642 5.64773H46.3239V5.39773ZM46.3807 5.39773V5.64773H46.5358L46.6047 5.50878L46.3807 5.39773ZM47.0092 4.72656L47.1368 4.94158L47.1381 4.94078L47.0092 4.72656ZM49.2109 4.93253L49.0355 5.11066L49.0362 5.11134L49.2109 4.93253ZM49.6761 10V10.25H49.9261V10H49.6761ZM48.8381 10H48.5881V10.25H48.8381V10ZM48.5078 5.48651L48.3535 5.68316L48.5078 5.48651ZM46.8388 5.57528L47.023 5.7443L47.0238 5.74336L46.8388 5.57528ZM46.5227 10V10.25H46.7727V10H46.5227ZM45.6705 10H45.4205V10.25H45.6705V10ZM45.3686 5.51491L45.1961 5.6959L45.1973 5.69696L45.3686 5.51491ZM43.9801 5.40128L43.8495 5.18809L43.8483 5.18883L43.9801 5.40128ZM43.5256 5.88423L43.3077 5.76155L43.3073 5.76239L43.5256 5.88423ZM43.3551 10V10.25H43.6051V10H43.3551ZM42.767 10V4.54545H42.267V10H42.767ZM42.517 4.79545H43.3267V4.29545H42.517V4.79545ZM43.0767 4.54545V5.39773H43.5767V4.54545H43.0767ZM43.3267 5.64773H43.3977V5.14773H43.3267V5.64773ZM43.6306 5.48861C43.7258 5.24475 43.8757 5.06169 44.0822 4.93046L43.8141 4.50846C43.5139 4.6992 43.2969 4.96832 43.1648 5.30684L43.6306 5.48861ZM44.0836 4.92956C44.2898 4.79661 44.545 4.72443 44.8608 4.72443V4.22443C44.4663 4.22443 44.1131 4.31561 43.8127 4.50936L44.0836 4.92956ZM44.8608 4.72443C45.1826 4.72443 45.4298 4.79714 45.6182 4.92589L45.9003 4.51303C45.6105 4.31507 45.2587 4.22443 44.8608 4.22443V4.72443ZM45.6206 4.92747C45.8198 5.06028 45.9793 5.24885 46.097 5.50284L46.5507 5.29261C46.3985 4.96422 46.1817 4.70061 45.8979 4.51145L45.6206 4.92747ZM46.3239 5.64773H46.3807V5.14773H46.3239V5.64773ZM46.6047 5.50878C46.7222 5.27177 46.8975 5.08353 47.1368 4.94158L46.8817 4.51155C46.5623 4.70103 46.3185 4.96024 46.1567 5.28668L46.6047 5.50878ZM47.1381 4.94078C47.3715 4.80036 47.66 4.72443 48.0142 4.72443V4.22443C47.5872 4.22443 47.2057 4.31659 46.8803 4.51235L47.1381 4.94078ZM48.0142 4.72443C48.4449 4.72443 48.778 4.85703 49.0355 5.11066L49.3863 4.7544C49.0236 4.39723 48.5589 4.22443 48.0142 4.22443V4.72443ZM49.0362 5.11134C49.2792 5.3488 49.4261 5.74298 49.4261 6.34943H49.9261C49.9261 5.67274 49.7629 5.12232 49.3857 4.75372L49.0362 5.11134ZM49.4261 6.34943V10H49.9261V6.34943H49.4261ZM49.6761 9.75H48.8381V10.25H49.6761V9.75ZM49.0881 10V6.34943H48.5881V10H49.0881ZM49.0881 6.34943C49.0881 5.90536 48.9658 5.5282 48.6622 5.28985L48.3535 5.68316C48.4901 5.79046 48.5881 5.98858 48.5881 6.34943H49.0881ZM48.6622 5.28985C48.395 5.08011 48.0804 4.97727 47.7301 4.97727V5.47727C47.9764 5.47727 48.1803 5.54725 48.3535 5.68316L48.6622 5.28985ZM47.7301 4.97727C47.2931 4.97727 46.9221 5.11162 46.6537 5.40721L47.0238 5.74336C47.1768 5.57493 47.4 5.47727 47.7301 5.47727V4.97727ZM46.6546 5.40627C46.3959 5.68817 46.2727 6.0424 46.2727 6.44886H46.7727C46.7727 6.14983 46.8602 5.92168 47.023 5.7443L46.6546 5.40627ZM46.2727 6.44886V10H46.7727V6.44886H46.2727ZM46.5227 9.75H45.6705V10.25H46.5227V9.75ZM45.9205 10V6.2642H45.4205V10H45.9205ZM45.9205 6.2642C45.9205 5.89444 45.7978 5.57552 45.5399 5.33286L45.1973 5.69696C45.3419 5.8331 45.4205 6.01371 45.4205 6.2642H45.9205ZM45.5411 5.33393C45.2867 5.09155 44.9626 4.97727 44.5909 4.97727V5.47727C44.8537 5.47727 45.048 5.55476 45.1961 5.6959L45.5411 5.33393ZM44.5909 4.97727C44.3261 4.97727 44.0774 5.04851 43.8495 5.18809L44.1107 5.61447C44.2616 5.52203 44.4201 5.47727 44.5909 5.47727V4.97727ZM43.8483 5.18883C43.6229 5.32866 43.4428 5.52169 43.3077 5.76155L43.7434 6.00692C43.8403 5.83484 43.9633 5.7059 44.1119 5.61373L43.8483 5.18883ZM43.3073 5.76239C43.17 6.00842 43.1051 6.2871 43.1051 6.59091H43.6051C43.6051 6.35968 43.6539 6.16724 43.7439 6.00607L43.3073 5.76239ZM43.1051 6.59091V10H43.6051V6.59091H43.1051ZM43.3551 9.75H42.517V10.25H43.3551V9.75ZM51.2085 12.0455H50.9585V12.2955H51.2085V12.0455ZM51.2085 4.54545V4.29545H50.9585V4.54545H51.2085ZM52.0181 4.54545H52.2681V4.29545H52.0181V4.54545ZM52.0181 5.41193H51.7681V5.66193H52.0181V5.41193ZM52.1175 5.41193V5.66193H52.2532L52.3272 5.54818L52.1175 5.41193ZM52.3732 5.04972L52.1728 4.90022L52.1724 4.90075L52.3732 5.04972ZM52.8491 4.65199L52.9718 4.86982L52.9726 4.86935L52.8491 4.65199ZM54.9087 4.81889L55.0458 4.6098L54.9087 4.81889ZM55.729 5.79545L55.9556 5.6898L55.729 5.79545ZM55.729 8.78906L55.9556 8.89471L55.9559 8.89423L55.729 8.78906ZM54.9123 9.76918L55.05 9.97784L55.051 9.97719L54.9123 9.76918ZM52.8668 9.93963L52.7444 10.1576L52.7463 10.1586L52.8668 9.93963ZM52.3803 9.53835L52.1803 9.68836L52.1815 9.68986L52.3803 9.53835ZM52.1175 9.16193L52.3301 9.03034L52.2568 8.91193H52.1175V9.16193ZM52.0465 9.16193V8.91193H51.7965V9.16193H52.0465ZM52.0465 12.0455V12.2955H52.2965V12.0455H52.0465ZM52.2134 8.36293L51.98 8.45244L51.9802 8.45303L52.2134 8.36293ZM52.7425 9.09801L52.5906 9.29655L52.5919 9.29752L52.7425 9.09801ZM54.4719 9.08381L54.6267 9.28018L54.6269 9.27998L54.4719 9.08381ZM55.0046 8.33097L54.771 8.24204L54.7706 8.24299L55.0046 8.33097ZM55.0082 6.2358L54.774 6.32338L54.7748 6.32554L55.0082 6.2358ZM54.479 5.50071L54.3256 5.69806L54.3278 5.69975L54.479 5.50071ZM52.7354 5.48651L52.8835 5.68798L52.8848 5.687L52.7354 5.48651ZM52.2099 6.20384L52.443 6.29419L52.4432 6.29358L52.2099 6.20384ZM51.4585 12.0455V4.54545H50.9585V12.0455H51.4585ZM51.2085 4.79545H52.0181V4.29545H51.2085V4.79545ZM51.7681 4.54545V5.41193H52.2681V4.54545H51.7681ZM52.0181 5.66193H52.1175V5.16193H52.0181V5.66193ZM52.3272 5.54818C52.3847 5.45961 52.4665 5.3435 52.574 5.19868L52.1724 4.90075C52.0621 5.04949 51.9735 5.17486 51.9079 5.27568L52.3272 5.54818ZM52.5736 5.19921C52.6592 5.08447 52.7883 4.97317 52.9718 4.86982L52.7264 4.43416C52.498 4.56282 52.3098 4.71666 52.1728 4.90022L52.5736 5.19921ZM52.9726 4.86935C53.1294 4.78025 53.363 4.72443 53.6942 4.72443V4.22443C53.3152 4.22443 52.9854 4.28698 52.7256 4.43462L52.9726 4.86935ZM53.6942 4.72443C54.1097 4.72443 54.4659 4.82759 54.7717 5.02799L55.0458 4.6098C54.6508 4.35091 54.1973 4.22443 53.6942 4.22443V4.72443ZM54.7717 5.02798C55.079 5.2294 55.3234 5.51707 55.5025 5.90111L55.9556 5.6898C55.7417 5.23104 55.4392 4.86766 55.0458 4.6098L54.7717 5.02798ZM55.5025 5.90111C55.6804 6.28266 55.7738 6.74224 55.7738 7.28693H56.2738C56.2738 6.68579 56.1707 6.15105 55.9556 5.6898L55.5025 5.90111ZM55.7738 7.28693C55.7738 7.83664 55.6803 8.29992 55.5022 8.6839L55.9559 8.89423C56.1708 8.43066 56.2738 7.89252 56.2738 7.28693H55.7738ZM55.5025 8.68341C55.3231 9.06805 55.0793 9.35735 54.7736 9.56116L55.051 9.97719C55.4413 9.71699 55.742 9.35288 55.9556 8.89471L55.5025 8.68341ZM54.7746 9.56051C54.4711 9.76076 54.1186 9.86364 53.7085 9.86364V10.3636C54.2073 10.3636 54.6574 10.2369 55.05 9.97784L54.7746 9.56051ZM53.7085 9.86364C53.3823 9.86364 53.1481 9.80911 52.9874 9.72063L52.7463 10.1586C53.007 10.3022 53.3339 10.3636 53.7085 10.3636V9.86364ZM52.9893 9.72167C52.8001 9.61538 52.6671 9.50224 52.5792 9.38684L52.1815 9.68986C52.3208 9.87276 52.5122 10.0271 52.7444 10.1576L52.9893 9.72167ZM52.5803 9.38835C52.4688 9.23963 52.3861 9.12081 52.3301 9.03034L51.905 9.29352C51.9721 9.40191 52.0646 9.53404 52.1803 9.68835L52.5803 9.38835ZM52.1175 8.91193H52.0465V9.41193H52.1175V8.91193ZM51.7965 9.16193V12.0455H52.2965V9.16193H51.7965ZM52.0465 11.7955H51.2085V12.2955H52.0465V11.7955ZM51.7823 7.27273C51.7823 7.70869 51.8462 8.10345 51.98 8.45244L52.4468 8.27342C52.3392 7.99267 52.2823 7.66063 52.2823 7.27273H51.7823ZM51.9802 8.45303C52.1151 8.80204 52.3169 9.0871 52.5906 9.29654L52.8945 8.89948C52.7041 8.75381 52.5533 8.54882 52.4466 8.27283L51.9802 8.45303ZM52.5919 9.29752C52.8739 9.51044 53.2131 9.6108 53.5948 9.6108V9.1108C53.3042 9.1108 53.0752 9.03597 52.8932 8.8985L52.5919 9.29752ZM53.5948 9.6108C53.9911 9.6108 54.3408 9.5054 54.6267 9.28018L54.3172 8.88743C54.1343 9.03154 53.8993 9.1108 53.5948 9.1108V9.6108ZM54.6269 9.27998C54.9034 9.06159 55.1061 8.77136 55.2386 8.41894L54.7706 8.24299C54.6664 8.5203 54.514 8.73197 54.317 8.88764L54.6269 9.27998ZM55.2383 8.41989C55.3713 8.07048 55.4357 7.68705 55.4357 7.27273H54.9357C54.9357 7.63492 54.8795 7.95698 54.771 8.24204L55.2383 8.41989ZM55.4357 7.27273C55.4357 6.86345 55.3725 6.48672 55.2415 6.14605L54.7748 6.32554C54.8805 6.6004 54.9357 6.91496 54.9357 7.27273H55.4357ZM55.2423 6.14821C55.1117 5.79903 54.9088 5.51334 54.6303 5.30167L54.3278 5.69975C54.5227 5.84792 54.6726 6.0523 54.774 6.32338L55.2423 6.14821ZM54.6325 5.30337C54.3461 5.08062 53.9943 4.97727 53.5948 4.97727V5.47727C53.9056 5.47727 54.1432 5.55621 54.3256 5.69805L54.6325 5.30337ZM53.5948 4.97727C53.21 4.97727 52.8686 5.07559 52.5861 5.28602L52.8848 5.687C53.0663 5.55178 53.2978 5.47727 53.5948 5.47727V4.97727ZM52.5874 5.28504C52.3115 5.48775 52.1095 5.76834 51.9765 6.11409L52.4432 6.29358C52.547 6.0238 52.6954 5.82617 52.8835 5.68798L52.5874 5.28504ZM51.9768 6.11348C51.8449 6.45376 51.7823 6.84188 51.7823 7.27273H52.2823C52.2823 6.88918 52.3381 6.56471 52.443 6.29419L51.9768 6.11348ZM58.1403 2.72727H58.3903V2.47727H58.1403V2.72727ZM58.1403 10V10.25H58.3903V10H58.1403ZM57.3022 10H57.0522V10.25H57.3022V10ZM57.3022 2.72727V2.47727H57.0522V2.72727H57.3022ZM57.8903 2.72727V10H58.3903V2.72727H57.8903ZM58.1403 9.75H57.3022V10.25H58.1403V9.75ZM57.5522 10V2.72727H57.0522V10H57.5522ZM57.3022 2.97727H58.1403V2.47727H57.3022V2.97727ZM60.6021 9.76562L60.4705 9.97823L60.4721 9.97917L60.6021 9.76562ZM59.725 8.78551L59.4999 8.89427L59.5006 8.89579L59.725 8.78551ZM59.725 5.83807L59.4996 5.72976L59.4994 5.73029L59.725 5.83807ZM60.5843 4.83665L60.7208 5.0461L60.7212 5.04589L60.5843 4.83665ZM62.7186 4.61648L62.7994 4.37992L62.7186 4.61648ZM63.475 5.07812L63.304 5.26051L63.305 5.26146L63.475 5.07812ZM64.0183 5.91619L64.2514 5.82581V5.82581L64.0183 5.91619ZM64.2207 7.55682V7.80682H64.4707V7.55682H64.2207ZM60.0162 7.55682H59.7662V7.80682H60.0162V7.55682ZM60.0162 6.83239V6.58239H59.7662V6.83239H60.0162ZM63.3684 6.83239V7.08239H63.6184V6.83239H63.3684ZM63.1838 6.00852L62.9602 6.12033L62.961 6.12207L63.1838 6.00852ZM62.6653 5.43679L62.5324 5.64854L62.5334 5.64917L62.6653 5.43679ZM61.0105 5.47585L61.1506 5.68292L61.151 5.68262L61.0105 5.47585ZM60.4529 6.11506L60.2289 6.00406L60.4529 6.11506ZM60.4707 8.49077L60.2467 8.60184L60.2478 8.60405L60.4707 8.49077ZM61.0708 9.14062L60.9449 9.35658L60.9464 9.35744L61.0708 9.14062ZM62.5588 9.26847L62.6407 9.50468L62.6425 9.50404L62.5588 9.26847ZM63.024 8.98438L63.1975 9.1644L63.1991 9.16277L63.024 8.98438ZM63.3258 8.50852L63.3934 8.26783L63.1723 8.20578L63.0917 8.42074L63.3258 8.50852ZM64.1355 8.7358L64.3742 8.8099L64.4504 8.56453L64.203 8.4951L64.1355 8.7358ZM63.7058 9.46023L63.8846 9.63494L63.8856 9.63391L63.7058 9.46023ZM62.9601 9.94318L63.0497 10.1766L63.0513 10.1759L62.9601 9.94318ZM61.9622 9.86364C61.4742 9.86364 61.0676 9.75629 60.7321 9.55208L60.4721 9.97917C60.8989 10.239 61.399 10.3636 61.9622 10.3636V9.86364ZM60.7336 9.55303C60.3968 9.34459 60.1356 9.05425 59.9493 8.67523L59.5006 8.89579C59.7262 9.35484 60.0499 9.71791 60.4706 9.97822L60.7336 9.55303ZM59.9501 8.67675C59.7657 8.29522 59.6696 7.84361 59.6696 7.31534H59.1696C59.1696 7.9045 59.277 8.433 59.4999 8.89427L59.9501 8.67675ZM59.6696 7.31534C59.6696 6.78716 59.7657 6.33271 59.9505 5.94584L59.4994 5.73029C59.277 6.1957 59.1696 6.7261 59.1696 7.31534H59.6696ZM59.9503 5.94637C60.1382 5.55543 60.3954 5.25813 60.7208 5.0461L60.4479 4.62719C60.0393 4.89338 59.7237 5.2637 59.4996 5.72976L59.9503 5.94637ZM60.7212 5.04589C61.0452 4.83403 61.4273 4.72443 61.877 4.72443V4.22443C61.3418 4.22443 60.8621 4.35631 60.4475 4.62741L60.7212 5.04589ZM61.877 4.72443C62.1327 4.72443 62.3859 4.76696 62.6377 4.85303L62.7994 4.37992C62.4972 4.2766 62.1894 4.22443 61.877 4.22443V4.72443ZM62.6377 4.85303C62.879 4.93554 63.1009 5.0701 63.304 5.26051L63.646 4.89574C63.3945 4.66002 63.1121 4.48681 62.7994 4.37992L62.6377 4.85303ZM63.305 5.26146C63.4993 5.44163 63.6612 5.6868 63.7852 6.00658L64.2514 5.82581C64.1055 5.44956 63.9051 5.13603 63.6449 4.89479L63.305 5.26146ZM63.7852 6.00658C63.9057 6.31737 63.9707 6.71311 63.9707 7.2017H64.4707C64.4707 6.6723 64.4008 6.21104 64.2514 5.82581L63.7852 6.00658ZM63.9707 7.2017V7.55682H64.4707V7.2017H63.9707ZM64.2207 7.30682H60.0162V7.80682H64.2207V7.30682ZM60.2662 7.55682V6.83239H59.7662V7.55682H60.2662ZM60.0162 7.08239H63.3684V6.58239H60.0162V7.08239ZM63.6184 6.83239C63.6184 6.49054 63.5498 6.17612 63.4065 5.89498L62.961 6.12207C63.0639 6.32388 63.1184 6.5587 63.1184 6.83239H63.6184ZM63.4074 5.89672C63.2664 5.61474 63.0622 5.38899 62.7972 5.22441L62.5334 5.64917C62.7182 5.76394 62.8597 5.91935 62.9602 6.12033L63.4074 5.89672ZM62.7982 5.22504C62.53 5.05673 62.2196 4.97727 61.877 4.97727V5.47727C62.1403 5.47727 62.3555 5.5375 62.5324 5.64854L62.7982 5.22504ZM61.877 4.97727C61.4999 4.97727 61.1606 5.07157 60.87 5.26908L61.151 5.68262C61.3481 5.54869 61.5864 5.47727 61.877 5.47727V4.97727ZM60.8704 5.26878C60.5929 5.45651 60.3782 5.70277 60.2289 6.00406L60.677 6.22605C60.7881 6.00177 60.9451 5.8219 61.1506 5.68292L60.8704 5.26878ZM60.2289 6.00406C60.0812 6.30224 60.0076 6.62206 60.0076 6.96023H60.5076C60.5076 6.69707 60.5643 6.45344 60.677 6.22605L60.2289 6.00406ZM60.0076 6.96023V7.44318H60.5076V6.96023H60.0076ZM60.0076 7.44318C60.0076 7.88291 60.0834 8.27237 60.2467 8.60183L60.6947 8.3797C60.574 8.13625 60.5076 7.82732 60.5076 7.44318H60.0076ZM60.2478 8.60405C60.4123 8.92754 60.6445 9.18135 60.9449 9.35657L61.1968 8.92468C60.9858 8.8016 60.818 8.62218 60.6936 8.37748L60.2478 8.60405ZM60.9464 9.35744C61.2453 9.52901 61.5865 9.6108 61.9622 9.6108V9.1108C61.6607 9.1108 61.4078 9.0458 61.1953 8.92381L60.9464 9.35744ZM61.9622 9.6108C62.2055 9.6108 62.4327 9.57677 62.6407 9.50467L62.4769 9.03226C62.3297 9.08327 62.1592 9.1108 61.9622 9.1108V9.6108ZM62.6425 9.50404C62.854 9.42889 63.0402 9.31594 63.1974 9.16439L62.8505 8.80436C62.7473 8.90376 62.6234 8.98021 62.4751 9.03289L62.6425 9.50404ZM63.1991 9.16277C63.358 9.00673 63.4775 8.8161 63.5599 8.5963L63.0917 8.42074C63.0321 8.57973 62.9503 8.70634 62.8488 8.80598L63.1991 9.16277ZM63.2583 8.74922L64.0679 8.97649L64.203 8.4951L63.3934 8.26783L63.2583 8.74922ZM63.8967 8.6617C63.8232 8.89868 63.7002 9.10612 63.526 9.28654L63.8856 9.63391C64.1138 9.39767 64.2773 9.12215 64.3742 8.8099L63.8967 8.6617ZM63.527 9.28552C63.353 9.46363 63.1352 9.606 62.8688 9.71043L63.0513 10.1759C63.3767 10.0484 63.6562 9.86876 63.8846 9.63494L63.527 9.28552ZM62.8704 9.7098C62.6074 9.8108 62.3058 9.86364 61.9622 9.86364V10.3636C62.3572 10.3636 62.7208 10.3028 63.0497 10.1766L62.8704 9.7098ZM74.274 5V5.25H74.5722L74.5201 4.95638L74.274 5ZM73.3933 5L73.1484 5.05035L73.1895 5.25H73.3933V5ZM73.1199 4.33239L72.9118 4.47107L72.913 4.47282L73.1199 4.33239ZM72.6511 3.84943L72.504 4.05164L72.507 4.05375L72.6511 3.84943ZM72.0439 3.55114L71.9725 3.79073L72.0439 3.55114ZM70.1511 3.78551L70.019 3.57327L70.0183 3.57367L70.1511 3.78551ZM69.3024 4.76918L69.0776 4.65984L69.0771 4.66083L69.3024 4.76918ZM69.3024 7.9581L69.0771 8.06644L69.0776 8.06744L69.3024 7.9581ZM70.1511 8.94176L70.0183 9.1536L70.019 9.154L70.1511 8.94176ZM72.0439 9.17614L71.9725 8.93654L72.0439 9.17614ZM72.6511 8.88139L72.7964 9.08483L72.7969 9.08447L72.6511 8.88139ZM73.1199 8.39489L72.9122 8.25563L72.9118 8.25621L73.1199 8.39489ZM73.3933 7.72727V7.47727H73.1898L73.1485 7.67647L73.3933 7.72727ZM74.274 7.72727L74.5201 7.77117L74.5725 7.47727H74.274V7.72727ZM73.9118 8.72514L73.6971 8.59703L73.9118 8.72514ZM73.2583 9.47443L73.4123 9.67139L73.4134 9.67052L73.2583 9.47443ZM72.3812 9.93963L72.3032 9.70212L72.3027 9.70229L72.3812 9.93963ZM69.693 9.64489L69.5601 9.85665L69.693 9.64489ZM68.5531 8.35227L68.7771 8.24123L68.5531 8.35227ZM68.5531 4.375L68.3291 4.26396L68.5531 4.375ZM72.3812 2.78764L72.3027 3.02499L72.3032 3.02516L72.3812 2.78764ZM73.2583 3.25639L73.1033 3.45248L73.1044 3.45334L73.2583 3.25639ZM73.9118 4.00213L73.6971 4.13025L73.6975 4.13101L73.9118 4.00213ZM74.274 4.75H73.3933V5.25H74.274V4.75ZM73.6382 4.94965C73.5802 4.66783 73.4774 4.41393 73.3267 4.19195L72.913 4.47282C73.0227 4.63437 73.1022 4.82554 73.1484 5.05035L73.6382 4.94965ZM73.3279 4.19371C73.1833 3.97684 73.0055 3.79344 72.7952 3.64512L72.507 4.05375C72.666 4.16584 72.8007 4.30441 72.9118 4.47106L73.3279 4.19371ZM72.7981 3.64725C72.5922 3.4975 72.3641 3.38567 72.1152 3.31154L71.9725 3.79073C72.1687 3.84918 72.3454 3.93621 72.5041 4.05162L72.7981 3.64725ZM72.1152 3.31154C71.8686 3.23808 71.6125 3.2017 71.3478 3.2017V3.7017C71.5661 3.7017 71.774 3.73162 71.9725 3.79073L72.1152 3.31154ZM71.3478 3.2017C70.863 3.2017 70.418 3.3249 70.019 3.57328L70.2832 3.99775C70.5992 3.80105 70.952 3.7017 71.3478 3.7017V3.2017ZM70.0183 3.57367C69.6179 3.82462 69.3056 4.19092 69.0776 4.65984L69.5272 4.87852C69.7205 4.48096 69.9741 4.19148 70.2839 3.99735L70.0183 3.57367ZM69.0771 4.66083C68.8483 5.13666 68.7399 5.70755 68.7399 6.36364H69.2399C69.2399 5.76026 69.3398 5.26817 69.5277 4.87752L69.0771 4.66083ZM68.7399 6.36364C68.7399 7.01973 68.8483 7.59061 69.0771 8.06644L69.5277 7.84975C69.3398 7.45911 69.2399 6.96701 69.2399 6.36364H68.7399ZM69.0776 8.06744C69.3056 8.53636 69.6179 8.90265 70.0183 9.1536L70.2839 8.72992C69.9741 8.5358 69.7205 8.24631 69.5272 7.84876L69.0776 8.06744ZM70.019 9.154C70.418 9.40237 70.863 9.52557 71.3478 9.52557V9.02557C70.952 9.02557 70.5992 8.92622 70.2832 8.72953L70.019 9.154ZM71.3478 9.52557C71.6125 9.52557 71.8686 9.48919 72.1152 9.41573L71.9725 8.93654C71.774 8.99566 71.5661 9.02557 71.3478 9.02557V9.52557ZM72.1152 9.41573C72.3633 9.34185 72.5908 9.23167 72.7964 9.08483L72.5058 8.67796C72.3468 8.79153 72.1695 8.87785 71.9725 8.93654L72.1152 9.41573ZM72.7969 9.08447C73.0063 8.9341 73.1836 8.75001 73.3279 8.53356L72.9118 8.25621C72.8005 8.42329 72.6652 8.56353 72.5053 8.67831L72.7969 9.08447ZM73.3275 8.53415C73.4773 8.31073 73.5801 8.05757 73.6381 7.77808L73.1485 7.67647C73.1023 7.89887 73.0228 8.09079 72.9122 8.25563L73.3275 8.53415ZM73.3933 7.97727H74.274V7.47727H73.3933V7.97727ZM74.0279 7.68338C73.9663 8.02842 73.8552 8.33198 73.6971 8.59703L74.1264 8.85326C74.3186 8.53118 74.449 8.16949 74.5201 7.77117L74.0279 7.68338ZM73.6971 8.59703C73.537 8.86529 73.3391 9.09179 73.1033 9.27835L73.4134 9.67052C73.6984 9.44514 73.9361 9.17212 74.1264 8.85326L73.6971 8.59703ZM73.1044 9.27748C72.8675 9.46268 72.601 9.60431 72.3032 9.70212L72.4592 10.1771C72.8101 10.0619 73.1284 9.89338 73.4123 9.67138L73.1044 9.27748ZM72.3027 9.70229C72.008 9.79978 71.6903 9.84943 71.3478 9.84943V10.3494C71.7393 10.3494 72.1105 10.2926 72.4597 10.177L72.3027 9.70229ZM71.3478 9.84943C70.7703 9.84943 70.2655 9.70898 69.8259 9.43312L69.5601 9.85665C70.0864 10.1869 70.6849 10.3494 71.3478 10.3494V9.84943ZM69.8259 9.43312C69.3856 9.15689 69.0356 8.76261 68.7771 8.24123L68.3291 8.46332C68.6246 9.05936 69.0345 9.52682 69.5601 9.85665L69.8259 9.43312ZM68.7771 8.24123C68.5207 7.72406 68.3876 7.10085 68.3876 6.36364H67.8876C67.8876 7.16051 68.0315 7.86306 68.3291 8.46332L68.7771 8.24123ZM68.3876 6.36364C68.3876 5.62642 68.5207 5.00321 68.7771 4.48604L68.3291 4.26396C68.0315 4.86421 67.8876 5.56676 67.8876 6.36364H68.3876ZM68.7771 4.48604C69.0356 3.96466 69.3856 3.57039 69.8259 3.29415L69.5601 2.87062C69.0345 3.20045 68.6246 3.66792 68.3291 4.26396L68.7771 4.48604ZM69.8259 3.29415C70.2655 3.01829 70.7703 2.87784 71.3478 2.87784V2.37784C70.6849 2.37784 70.0864 2.54042 69.5601 2.87062L69.8259 3.29415ZM71.3478 2.87784C71.6903 2.87784 72.008 2.9275 72.3027 3.02499L72.4597 2.5503C72.1105 2.43472 71.7393 2.37784 71.3478 2.37784V2.87784ZM72.3032 3.02516C72.6004 3.12278 72.8666 3.26526 73.1033 3.45248L73.4134 3.06031C73.1293 2.83559 72.8107 2.66557 72.4592 2.55013L72.3032 3.02516ZM73.1044 3.45334C73.3396 3.63729 73.5371 3.86226 73.6971 4.13024L74.1264 3.87402C73.936 3.55488 73.6979 3.28269 73.4123 3.05944L73.1044 3.45334ZM73.6975 4.13101C73.8552 4.39307 73.9662 4.69617 74.0278 5.04362L74.5201 4.95638C74.4491 4.55572 74.3187 4.19358 74.126 3.87325L73.6975 4.13101ZM75.6971 10H75.4471V10.25H75.6971V10ZM75.6971 2.72727V2.47727H75.4471V2.72727H75.6971ZM79.5536 3.01847L79.4361 3.23914L79.4372 3.23973L79.5536 3.01847ZM80.3633 3.81037L80.1416 3.9259V3.9259L80.3633 3.81037ZM80.3633 6.0973L80.1423 5.98047L80.3633 6.0973ZM79.5572 6.87855L79.6719 7.10069L79.673 7.10009L79.5572 6.87855ZM76.18 7.15909H75.93V7.40909H76.18V7.15909ZM76.18 6.36364V6.11364H75.93V6.36364H76.18ZM79.0778 6.19318L78.9705 5.96738L78.9696 5.9678L79.0778 6.19318ZM79.5962 5.71023L79.3741 5.59544L79.3736 5.59641L79.5962 5.71023ZM79.0742 3.68963L78.9615 3.9128L78.9633 3.91368L79.0742 3.68963ZM76.5778 3.50852V3.25852H76.3278V3.50852H76.5778ZM76.5778 10V10.25H76.8278V10H76.5778ZM79.1204 6.73295L79.3396 6.61284L79.2685 6.48295H79.1204V6.73295ZM80.9102 10V10.25H81.3322L81.1294 9.87989L80.9102 10ZM79.8874 10L79.6674 10.1186L79.7382 10.25H79.8874V10ZM78.1261 6.73295V6.48295H77.7073L77.906 6.85159L78.1261 6.73295ZM75.9471 10V2.72727H75.4471V10H75.9471ZM75.6971 2.97727H78.1545V2.47727H75.6971V2.97727ZM78.1545 2.97727C78.6963 2.97727 79.1187 3.07013 79.4361 3.23913L79.6711 2.7978C79.2594 2.57854 78.749 2.47727 78.1545 2.47727V2.97727ZM79.4372 3.23973C79.7609 3.40995 79.992 3.63881 80.1416 3.9259L80.585 3.69483C80.3842 3.30958 80.0755 3.01051 79.67 2.7972L79.4372 3.23973ZM80.1416 3.9259C80.2959 4.22198 80.3761 4.56381 80.3761 4.95739H80.8761C80.8761 4.49396 80.7811 4.0711 80.585 3.69483L80.1416 3.9259ZM80.3761 4.95739C80.3761 5.35104 80.2958 5.68989 80.1423 5.98047L80.5843 6.21413C80.7811 5.84183 80.8761 5.42074 80.8761 4.95739H80.3761ZM80.1423 5.98047C79.9929 6.26311 79.7629 6.48885 79.4413 6.65701L79.673 7.10009C80.0758 6.88947 80.3833 6.59437 80.5843 6.21413L80.1423 5.98047ZM79.4425 6.65641C79.1266 6.81949 78.7066 6.90909 78.1687 6.90909V7.40909C78.7576 7.40909 79.2633 7.31166 79.6719 7.10069L79.4425 6.65641ZM78.1687 6.90909H76.18V7.40909H78.1687V6.90909ZM76.43 7.15909V6.36364H75.93V7.15909H76.43ZM76.18 6.61364H78.1403V6.11364H76.18V6.61364ZM78.1403 6.61364C78.5495 6.61364 78.9032 6.55427 79.186 6.41856L78.9696 5.9678C78.7788 6.05936 78.5075 6.11364 78.1403 6.11364V6.61364ZM79.1851 6.41898C79.467 6.28498 79.684 6.08773 79.8188 5.82405L79.3736 5.59641C79.2954 5.74939 79.1667 5.87411 78.9705 5.96738L79.1851 6.41898ZM79.8183 5.82502C79.9493 5.57165 80.0096 5.27956 80.0096 4.95739H79.5096C79.5096 5.2176 79.461 5.42741 79.3741 5.59544L79.8183 5.82502ZM80.0096 4.95739C80.0096 4.63491 79.9492 4.34076 79.8198 4.08209L79.3726 4.3057C79.4611 4.48262 79.5096 4.69747 79.5096 4.95739H80.0096ZM79.8198 4.08209C79.6842 3.81089 79.4681 3.60566 79.1851 3.46558L78.9633 3.91368C79.1586 4.01034 79.2904 4.14128 79.3726 4.3057L79.8198 4.08209ZM79.1869 3.46647C78.9004 3.32178 78.5413 3.25852 78.1261 3.25852V3.75852C78.4968 3.75852 78.7698 3.816 78.9615 3.91279L79.1869 3.46647ZM78.1261 3.25852H76.5778V3.75852H78.1261V3.25852ZM76.3278 3.50852V10H76.8278V3.50852H76.3278ZM76.5778 9.75H75.6971V10.25H76.5778V9.75ZM78.9011 6.85307L80.6909 10.1201L81.1294 9.87989L79.3396 6.61284L78.9011 6.85307ZM80.9102 9.75H79.8874V10.25H80.9102V9.75ZM80.1075 9.88136L78.3461 6.61432L77.906 6.85159L79.6674 10.1186L80.1075 9.88136ZM78.1261 6.98295H79.1204V6.48295H78.1261V6.98295ZM82.0936 2.72727V2.47727H81.8436V2.72727H82.0936ZM83.1447 2.72727L83.3761 2.63255L83.3125 2.47727H83.1447V2.72727ZM85.6163 8.7642L85.3849 8.85893L85.4485 9.0142H85.6163V8.7642ZM85.7015 8.7642V9.0142H85.8693L85.9329 8.85893L85.7015 8.7642ZM88.1731 2.72727V2.47727H88.0053L87.9418 2.63255L88.1731 2.72727ZM89.2243 2.72727H89.4743V2.47727H89.2243V2.72727ZM89.2243 10V10.25H89.4743V10H89.2243ZM88.4004 10H88.1504V10.25H88.4004V10ZM88.4004 4.47443H88.6504V4.22443H88.4004V4.47443ZM88.3294 4.47443V4.22443H88.1619L88.0982 4.37933L88.3294 4.47443ZM86.0566 10V10.25H86.2241L86.2878 10.0951L86.0566 10ZM85.2612 10L85.03 10.0951L85.0937 10.25H85.2612V10ZM82.9885 4.47443L83.2197 4.37933L83.156 4.22443H82.9885V4.47443ZM82.9174 4.47443V4.22443H82.6674V4.47443H82.9174ZM82.9174 10V10.25H83.1674V10H82.9174ZM82.0936 10H81.8436V10.25H82.0936V10ZM82.0936 2.97727H83.1447V2.47727H82.0936V2.97727ZM82.9133 2.82199L85.3849 8.85893L85.8477 8.66948L83.3761 2.63255L82.9133 2.82199ZM85.6163 9.0142H85.7015V8.5142H85.6163V9.0142ZM85.9329 8.85893L88.4045 2.82199L87.9418 2.63255L85.4702 8.66948L85.9329 8.85893ZM88.1731 2.97727H89.2243V2.47727H88.1731V2.97727ZM88.9743 2.72727V10H89.4743V2.72727H88.9743ZM89.2243 9.75H88.4004V10.25H89.2243V9.75ZM88.6504 10V4.47443H88.1504V10H88.6504ZM88.4004 4.22443H88.3294V4.72443H88.4004V4.22443ZM88.0982 4.37933L85.8254 9.9049L86.2878 10.0951L88.5606 4.56953L88.0982 4.37933ZM86.0566 9.75H85.2612V10.25H86.0566V9.75ZM85.4924 9.9049L83.2197 4.37933L82.7573 4.56953L85.03 10.0951L85.4924 9.9049ZM82.9885 4.22443H82.9174V4.72443H82.9885V4.22443ZM82.6674 4.47443V10H83.1674V4.47443H82.6674ZM82.9174 9.75H82.0936V10.25H82.9174V9.75ZM82.3436 10V2.72727H81.8436V10H82.3436Z" fill="black"/>
<path d="M11.2 14.7L10.3529 16.8824M4 15.4706C5.2984 14.1417 8.38013 12.8852 8.5 13C8.61987 13.1148 10.3529 9.82353 10.3529 9.82353H11.7647L8.94118 9.11765L11.7647 8.41176C12.5333 7.70047 13.4057 7.41761 15.2941 7V7.70588H16C14.9534 9.27706 14.4415 10.1862 13.8824 11.9412C13.6085 13.8711 13.6439 14.9525 13.8824 16.8824" stroke="white" stroke-width="0.6"/>
<path d="M16.7206 17.9094C16.8711 18.0978 17.1468 18.1293 17.3267 17.9688C18.314 17.0877 19.0691 15.9738 19.5214 14.7254C20.0235 13.34 20.1331 11.8428 19.8382 10.399C19.5433 8.95526 18.8553 7.62098 17.8502 6.54338C16.8451 5.46577 15.5619 4.68671 14.1421 4.29213C12.7224 3.89755 11.2212 3.90278 9.80419 4.30725C8.38719 4.71172 7.10944 5.4997 6.11187 6.58429C5.1143 7.66887 4.43568 9.00792 4.15086 10.4537C3.89422 11.7565 3.96629 13.1003 4.35739 14.3644C4.42866 14.5948 4.68106 14.7099 4.90718 14.6262C5.13331 14.5425 5.24737 14.2916 5.17764 14.0608C4.84149 12.9479 4.78204 11.7674 5.00759 10.6225C5.26132 9.3345 5.86588 8.14161 6.75456 7.17541C7.64324 6.2092 8.78153 5.50723 10.0439 5.14691C11.3062 4.78659 12.6435 4.78193 13.9083 5.13344C15.1731 5.48495 16.3163 6.17898 17.2117 7.13896C18.1071 8.09895 18.7199 9.2876 18.9826 10.5738C19.2453 11.86 19.1477 13.1937 18.7005 14.428C18.3029 15.5251 17.6429 16.5056 16.7807 17.2855C16.6019 17.4472 16.5701 17.721 16.7206 17.9094Z" fill="white"/>
<path d="M13 8.5H13.5" stroke="white" stroke-width="0.5"/>
</svg>
